<?xml version="1.0" encoding="UTF-8"?>
<svg version="1.1" xmlns="http://www.w3.org/2000/svg" width="621" height="621">
<path d="M0 0 C204.93 0 409.86 0 621 0 C621 204.93 621 409.86 621 621 C416.07 621 211.14 621 0 621 C0 416.07 0 211.14 0 0 Z " fill="#002453" transform="translate(0,0)"/>
<path d="M0 0 C0.64475784 -0.00029205 1.28951569 -0.00058411 1.95381165 -0.00088501 C4.05862478 0.00049452 6.16307193 0.0159895 8.26782227 0.03173828 C9.73755195 0.03547333 11.20728414 0.03831798 12.67701721 0.04031372 C16.52557375 0.04791148 20.37397681 0.06752631 24.22247314 0.08972168 C28.15749028 0.1102637 32.09253247 0.11933323 36.02758789 0.12939453 C43.7340377 0.15077628 51.44036151 0.184865 59.14672852 0.22705078 C58.88070422 2.11800073 58.60056676 4.00696782 58.31469727 5.89501953 C58.16025146 6.94713623 58.00580566 7.99925293 57.84667969 9.08325195 C56.70998907 14.18864613 54.24477565 18.07465661 51.14672852 22.22705078 C50.6659082 22.87544922 50.18508789 23.52384766 49.68969727 24.19189453 C37.4976577 38.29762132 12.09450208 39.58490907 -5.171875 42.05932617 C-17.38976853 43.76935364 -17.38976853 43.76935364 -27.85327148 49.22705078 C-12.01327148 49.22705078 3.82672852 49.22705078 20.14672852 49.22705078 C20.14672852 50.87705078 20.14672852 52.52705078 20.14672852 54.22705078 C19.43564438 54.23434204 18.72456024 54.2416333 17.9919281 54.24914551 C11.26777255 54.32509927 4.54543488 54.4390087 -2.17736912 54.59485626 C-5.63329354 54.67365111 -9.08821156 54.73809622 -12.54492188 54.76904297 C-16.52531885 54.80532172 -20.50292719 54.90528136 -24.48217773 55.00830078 C-26.33100304 55.01198669 -26.33100304 55.01198669 -28.21717834 55.01574707 C-34.60291502 55.16150718 -34.60291502 55.16150718 -40.16671753 57.94750977 C-41.98376324 59.96420867 -43.459775 61.9005234 -44.85327148 64.22705078 C-45.40362816 65.09867859 -45.40362816 65.09867859 -45.96510315 65.98791504 C-47.29891388 69.07771337 -47.29891388 69.07771337 -47.85327148 76.22705078 C-25.74327148 76.22705078 -3.63327148 76.22705078 19.14672852 76.22705078 C19.14672852 77.54705078 19.14672852 78.86705078 19.14672852 80.22705078 C4.5976319 81.26460093 -9.89720308 81.34617422 -24.47827148 81.28955078 C-26.75691632 81.28452102 -29.03556225 81.27996075 -31.31420898 81.27587891 C-36.82725404 81.26500116 -42.34025747 81.24838231 -47.85327148 81.22705078 C-47.24820354 83.31928728 -46.63295975 85.40858278 -46.01342773 87.49658203 C-45.67190674 88.66036377 -45.33038574 89.82414551 -44.97851562 91.02319336 C-43.12177876 96.30979738 -40.53087191 99.1086505 -35.85327148 102.22705078 C-31.28451777 102.66037801 -26.70660637 102.64109608 -22.11987305 102.65258789 C-19.86064056 102.66451189 -17.60411714 102.71372171 -15.34545898 102.76416016 C-13.91057647 102.77362178 -12.47567721 102.78085807 -11.04077148 102.78564453 C-9.73495117 102.79909912 -8.42913086 102.81255371 -7.08374023 102.82641602 C-3.68566768 102.56861401 -3.68566768 102.56861401 -1.99291992 99.80175781 C-1.61683594 98.95210449 -1.24075195 98.10245117 -0.85327148 97.22705078 C1.35026788 94.50894865 2.9331193 93.73158482 6.39672852 93.28955078 C11.53548463 92.8710853 14.03851127 94.18697002 18.14672852 97.22705078 C20.36065123 99.574528 21.0999095 100.78008526 21.43969727 104.02392578 C21.40489258 104.99845703 21.37008789 105.97298828 21.33422852 106.97705078 C21.29362305 108.45431641 21.29362305 108.45431641 21.25219727 109.96142578 C21.21739258 110.70908203 21.18258789 111.45673828 21.14672852 112.22705078 C20.48672852 112.22705078 19.82672852 112.22705078 19.14672852 112.22705078 C18.89922852 112.82517578 18.65172852 113.42330078 18.39672852 114.03955078 C16.85135376 116.7439566 15.94025487 117.79447316 13.14672852 119.22705078 C9.33830209 119.89443217 5.80320617 120.07805304 2.29907227 118.27783203 C-1.03947087 115.67754168 -2.44948867 113.11193809 -3.85327148 109.22705078 C-4.67005371 109.20723145 -5.48683594 109.18741211 -6.32836914 109.16699219 C-10.04531589 109.07146935 -13.76172167 108.96189954 -17.47827148 108.85205078 C-18.7634668 108.82111328 -20.04866211 108.79017578 -21.37280273 108.75830078 C-22.61674805 108.71962891 -23.86069336 108.68095703 -25.14233398 108.64111328 C-26.28395996 108.60969238 -27.42558594 108.57827148 -28.60180664 108.54589844 C-31.94615549 108.21794232 -34.71828049 107.41045798 -37.85327148 106.22705078 C-37.30908569 106.94646851 -37.30908569 106.94646851 -36.75390625 107.68041992 C-33.02744878 112.6253148 -29.39449087 117.6298524 -25.79077148 122.66455078 C-21.39227619 128.78819492 -16.9012405 134.82408334 -12.29077148 140.78955078 C-3.23425889 152.53281511 5.38717869 164.58260301 13.14672852 177.22705078 C13.64430664 178.00693359 14.14188477 178.78681641 14.65454102 179.59033203 C23.75652331 194.14873827 32.25895007 212.35227887 32.27954102 229.83251953 C32.28083008 230.89921875 32.28211914 231.96591797 32.28344727 233.06494141 C32.27958008 234.1703125 32.27571289 235.27568359 32.27172852 236.41455078 C32.2755957 237.50058594 32.27946289 238.58662109 32.28344727 239.70556641 C32.26246983 257.16928116 32.26246983 257.16928116 28.91235352 265.19970703 C27.56549407 268.76613588 26.88117351 272.49434212 26.14672852 276.22705078 C25.48672852 276.22705078 24.82672852 276.22705078 24.14672852 276.22705078 C23.96110352 277.15517578 23.77547852 278.08330078 23.58422852 279.03955078 C18.33615993 296.97644273 0.12108679 312.68331768 -15.43041992 321.47460938 C-34.32092275 331.64442802 -57.57750455 333.79014974 -78.18139648 327.61767578 C-89.2352744 323.43131351 -99.08732905 318.26891713 -107.85327148 310.22705078 C-108.59706055 309.57478516 -109.34084961 308.92251953 -110.10717773 308.25048828 C-119.52821862 299.50120857 -127.6831784 287.43006002 -131.85327148 275.22705078 C-131.85327148 274.23705078 -131.85327148 273.24705078 -131.85327148 272.22705078 C-132.51327148 272.22705078 -133.17327148 272.22705078 -133.85327148 272.22705078 C-138.84857348 250.35931915 -140.61048796 232.9708237 -134.85327148 211.22705078 C-134.52327148 211.22705078 -134.19327148 211.22705078 -133.85327148 211.22705078 C-133.81459961 212.93248047 -133.81459961 212.93248047 -133.77514648 214.67236328 C-133.17283903 233.18677061 -128.56561871 250.28837801 -115.23608398 263.87548828 C-104.2046878 273.89016592 -92.49169248 275.90544313 -78.04467773 275.60205078 C-66.06055163 274.99842507 -56.59043924 268.53015051 -48.60327148 259.91455078 C-45.24206642 255.77840121 -43.00523066 251.07675588 -40.85327148 246.22705078 C-40.51295898 245.50001953 -40.17264648 244.77298828 -39.82202148 244.02392578 C-38.70047 240.7858981 -38.14088518 237.60586122 -37.56152344 234.234375 C-35.15420924 220.40610561 -30.60310501 209.75765399 -19.85327148 200.22705078 C-12.055242 195.31090176 -5.04238569 193.37084723 4.14672852 194.22705078 C11.15158651 196.02448502 16.65372359 199.62397402 22.14672852 204.22705078 C10.1999262 177.74880141 -14.5385201 156.00409946 -41.47827148 145.53955078 C-43.58202148 144.77642578 -45.68577148 144.01330078 -47.85327148 143.22705078 C-47.85327148 147.84705078 -47.85327148 152.46705078 -47.85327148 157.22705078 C-49.17327148 157.22705078 -50.49327148 157.22705078 -51.85327148 157.22705078 C-51.96968656 143.83044723 -52.0582498 130.43396621 -52.11233234 117.03695774 C-52.13830371 110.81457574 -52.17347214 104.59254262 -52.23046875 98.37036133 C-52.28523519 92.35323142 -52.31478544 86.33643476 -52.3276577 80.31907463 C-52.33681803 78.03600769 -52.35470337 75.75295671 -52.38192177 73.47003365 C-52.64917849 50.1012597 -48.74415075 32.00492772 -32.21655273 14.44970703 C-23.1678389 5.93942906 -12.6403242 -0.04852332 0 0 Z " fill="#C7175A" transform="translate(352.853271484375,158.77294921875)"/>
<path d="M0 0 C5.25514599 0.87585766 9.00051539 2.18456105 13.625 4.5625 C14.32939209 4.92255127 15.03378418 5.28260254 15.75952148 5.65356445 C37.90196023 17.18351865 60.95902032 36.5008466 71 60 C70.67 60.66 70.34 61.32 70 62 C69.30777344 61.41992188 69.30777344 61.41992188 68.6015625 60.828125 C61.03786625 54.78912641 53.5706826 51.18132135 43.7265625 51.625 C34.71487737 52.86442947 28.01125458 57.29779662 22 64 C16.14202386 72.05791478 13.28101245 80.09384733 11.625 89.8125 C9.09268773 104.42471734 2.07635822 117.13626272 -10 126 C-13.24422097 127.90211765 -16.54319481 129.52341765 -20 131 C-20.71414063 131.36609375 -21.42828125 131.7321875 -22.1640625 132.109375 C-31.68308003 135.09881852 -45.62026504 134.40938164 -54.65625 130.3203125 C-69.60176828 121.90100387 -79.06817228 110.10100826 -84.23828125 93.76171875 C-89.15495158 75.93563709 -85.94671555 60.44863102 -77.140625 44.66796875 C-68.96535213 31.50983329 -56.40497029 18.98702213 -41 15 C-32.37111288 13.59529745 -23.58719083 13.88447449 -14.875 13.9375 C-13.42708489 13.94252748 -11.97916808 13.94708817 -10.53125 13.95117188 C-7.02075588 13.96121333 -3.51050306 13.98080527 0 14 C0 9.38 0 4.76 0 0 Z " fill="#0062B0" transform="translate(305,302)"/>
<path d="M0 0 C0.64475784 -0.00029205 1.28951569 -0.00058411 1.95381165 -0.00088501 C4.05862478 0.00049452 6.16307193 0.0159895 8.26782227 0.03173828 C9.73755195 0.03547333 11.20728414 0.03831798 12.67701721 0.04031372 C16.52557375 0.04791148 20.37397681 0.06752631 24.22247314 0.08972168 C28.15749028 0.1102637 32.09253247 0.11933323 36.02758789 0.12939453 C43.7340377 0.15077628 51.44036151 0.184865 59.14672852 0.22705078 C58.88070422 2.11800073 58.60056676 4.00696782 58.31469727 5.89501953 C58.16025146 6.94713623 58.00580566 7.99925293 57.84667969 9.08325195 C56.70998907 14.18864613 54.24477565 18.07465661 51.14672852 22.22705078 C50.42549805 23.19964844 50.42549805 23.19964844 49.68969727 24.19189453 C37.4976577 38.29762132 12.09450208 39.58490907 -5.171875 42.05932617 C-17.38976853 43.76935364 -17.38976853 43.76935364 -27.85327148 49.22705078 C-12.01327148 49.22705078 3.82672852 49.22705078 20.14672852 49.22705078 C20.14672852 50.87705078 20.14672852 52.52705078 20.14672852 54.22705078 C19.08010231 54.23798767 19.08010231 54.23798767 17.9919281 54.24914551 C11.26777255 54.32509927 4.54543488 54.4390087 -2.17736912 54.59485626 C-5.63329354 54.67365111 -9.08821156 54.73809622 -12.54492188 54.76904297 C-16.52531885 54.80532172 -20.50292719 54.90528136 -24.48217773 55.00830078 C-25.71472794 55.01075806 -26.94727814 55.01321533 -28.21717834 55.01574707 C-34.60291502 55.16150718 -34.60291502 55.16150718 -40.16671753 57.94750977 C-41.98376324 59.96420867 -43.459775 61.9005234 -44.85327148 64.22705078 C-45.22017593 64.80813599 -45.58708038 65.38922119 -45.96510315 65.98791504 C-47.29891388 69.07771337 -47.29891388 69.07771337 -47.85327148 76.22705078 C-25.74327148 76.22705078 -3.63327148 76.22705078 19.14672852 76.22705078 C19.14672852 77.54705078 19.14672852 78.86705078 19.14672852 80.22705078 C4.5976319 81.26460093 -9.89720308 81.34617422 -24.47827148 81.28955078 C-26.75691632 81.28452102 -29.03556225 81.27996075 -31.31420898 81.27587891 C-36.82725404 81.26500116 -42.34025747 81.24838231 -47.85327148 81.22705078 C-47.24820354 83.31928728 -46.63295975 85.40858278 -46.01342773 87.49658203 C-45.67190674 88.66036377 -45.33038574 89.82414551 -44.97851562 91.02319336 C-43.12177876 96.30979738 -40.53087191 99.1086505 -35.85327148 102.22705078 C-31.28451777 102.66037801 -26.70660637 102.64109608 -22.11987305 102.65258789 C-19.86064056 102.66451189 -17.60411714 102.71372171 -15.34545898 102.76416016 C-13.91057647 102.77362178 -12.47567721 102.78085807 -11.04077148 102.78564453 C-9.73495117 102.79909912 -8.42913086 102.81255371 -7.08374023 102.82641602 C-3.68566768 102.56861401 -3.68566768 102.56861401 -1.99291992 99.80175781 C-1.42879395 98.52727783 -1.42879395 98.52727783 -0.85327148 97.22705078 C1.35026788 94.50894865 2.9331193 93.73158482 6.39672852 93.28955078 C11.53548463 92.8710853 14.03851127 94.18697002 18.14672852 97.22705078 C20.36065123 99.574528 21.0999095 100.78008526 21.43969727 104.02392578 C21.40489258 104.99845703 21.37008789 105.97298828 21.33422852 106.97705078 C21.29362305 108.45431641 21.29362305 108.45431641 21.25219727 109.96142578 C21.21739258 110.70908203 21.18258789 111.45673828 21.14672852 112.22705078 C20.48672852 112.22705078 19.82672852 112.22705078 19.14672852 112.22705078 C18.89922852 112.82517578 18.65172852 113.42330078 18.39672852 114.03955078 C16.85135376 116.7439566 15.94025487 117.79447316 13.14672852 119.22705078 C9.33830209 119.89443217 5.80320617 120.07805304 2.29907227 118.27783203 C-1.03947087 115.67754168 -2.44948867 113.11193809 -3.85327148 109.22705078 C-4.67005371 109.20723145 -5.48683594 109.18741211 -6.32836914 109.16699219 C-10.04531589 109.07146935 -13.76172167 108.96189954 -17.47827148 108.85205078 C-18.7634668 108.82111328 -20.04866211 108.79017578 -21.37280273 108.75830078 C-22.61674805 108.71962891 -23.86069336 108.68095703 -25.14233398 108.64111328 C-26.28395996 108.60969238 -27.42558594 108.57827148 -28.60180664 108.54589844 C-31.94615549 108.21794232 -34.71828049 107.41045798 -37.85327148 106.22705078 C-37.30908569 106.94646851 -37.30908569 106.94646851 -36.75390625 107.68041992 C-33.02744878 112.6253148 -29.39449087 117.6298524 -25.79077148 122.66455078 C-21.39227619 128.78819492 -16.9012405 134.82408334 -12.29077148 140.78955078 C-3.23425889 152.53281511 5.38717869 164.58260301 13.14672852 177.22705078 C13.64430664 178.00693359 14.14188477 178.78681641 14.65454102 179.59033203 C30.54010396 204.99891569 30.54010396 204.99891569 28.70922852 214.49658203 C28.52360352 215.06763672 28.33797852 215.63869141 28.14672852 216.22705078 C27.51831055 214.71884766 27.51831055 214.71884766 26.87719727 213.18017578 C14.14910734 183.53839818 -9.32376844 158.88423727 -39.28979492 146.38964844 C-42.12625316 145.28784705 -44.99272198 144.26470109 -47.85327148 143.22705078 C-47.85327148 147.84705078 -47.85327148 152.46705078 -47.85327148 157.22705078 C-49.17327148 157.22705078 -50.49327148 157.22705078 -51.85327148 157.22705078 C-51.96968656 143.83044723 -52.0582498 130.43396621 -52.11233234 117.03695774 C-52.13830371 110.81457574 -52.17347214 104.59254262 -52.23046875 98.37036133 C-52.28523519 92.35323142 -52.31478544 86.33643476 -52.3276577 80.31907463 C-52.33681803 78.03600769 -52.35470337 75.75295671 -52.38192177 73.47003365 C-52.64917849 50.1012597 -48.74415075 32.00492772 -32.21655273 14.44970703 C-23.1678389 5.93942906 -12.6403242 -0.04852332 0 0 Z " fill="#EBA703" transform="translate(352.853271484375,158.77294921875)"/>
<path d="M0 0 C5.25514599 0.87585766 9.00051539 2.18456105 13.625 4.5625 C14.32939209 4.92255127 15.03378418 5.28260254 15.75952148 5.65356445 C37.90196023 17.18351865 60.95902032 36.5008466 71 60 C70.67 60.66 70.34 61.32 70 62 C69.30777344 61.41992188 69.30777344 61.41992188 68.6015625 60.828125 C61.03786625 54.78912641 53.5706826 51.18132135 43.7265625 51.625 C34.71487737 52.86442947 28.01125458 57.29779662 22 64 C16.14202386 72.05791478 13.28101245 80.09384733 11.625 89.8125 C9.09268773 104.42471734 2.07635822 117.13626272 -10 126 C-13.24422097 127.90211765 -16.54319481 129.52341765 -20 131 C-20.71414063 131.36609375 -21.42828125 131.7321875 -22.1640625 132.109375 C-31.68308003 135.09881852 -45.62026504 134.40938164 -54.65625 130.3203125 C-69.60176828 121.90100387 -79.06817228 110.10100826 -84.23828125 93.76171875 C-85.61512432 88.76978002 -86.11498117 84.38313615 -86.0625 79.1875 C-86.05347656 78.02605469 -86.04445312 76.86460937 -86.03515625 75.66796875 C-86.02355469 74.78753906 -86.01195312 73.90710938 -86 73 C-85.67 73 -85.34 73 -85 73 C-84.85304687 73.95519531 -84.70609375 74.91039062 -84.5546875 75.89453125 C-82.57704869 87.29436877 -79.55247862 97.04268985 -70.15234375 104.56640625 C-59.52264944 111.64643858 -47.43032183 112.3596628 -35.046875 110.57421875 C-22.93919398 107.39107035 -14.22980166 99.66712517 -8 89 C-5.97054135 84.42007254 -4.36892807 79.81598791 -3 75 C-2.658479 73.86014648 -2.31695801 72.72029297 -1.96508789 71.54589844 C-0.60076872 66.02513749 -0.64558237 60.50372045 -0.5859375 54.84375 C-0.56657135 53.70087524 -0.5472052 52.55800049 -0.5272522 51.38049316 C-0.46778649 47.75373647 -0.42120315 44.12694747 -0.375 40.5 C-0.33678986 38.03123666 -0.29773639 35.56248622 -0.2578125 33.09375 C-0.16211221 27.06261506 -0.07696929 21.03140152 0 15 C-1.32 14.67 -2.64 14.34 -4 14 C-2.68 14 -1.36 14 0 14 C0 9.38 0 4.76 0 0 Z " fill="#032452" transform="translate(305,302)"/>
<path d="M0 0 C0.33 0 0.66 0 1 0 C1.02578125 1.13695312 1.0515625 2.27390625 1.078125 3.4453125 C1.68043245 21.95971983 6.28765278 39.06132723 19.6171875 52.6484375 C28.93315817 61.10579336 38.86473182 64.35717971 51.3125 64.3125 C52.6418457 64.33666992 52.6418457 64.33666992 53.99804688 64.36132812 C60.44846987 64.36603303 65.93339292 63.16063098 72 61 C70.5963173 63.80736541 68.89216587 63.96708362 66 65 C64.515 65.495 64.515 65.495 63 66 C62.05253906 66.53560547 62.05253906 66.53560547 61.0859375 67.08203125 C58.61553749 68.16919231 57.27399434 68.07323075 54.625 67.6875 C53.84511719 67.57921875 53.06523437 67.4709375 52.26171875 67.359375 C51.14216797 67.18148437 51.14216797 67.18148437 50 67 C48.824375 66.814375 47.64875 66.62875 46.4375 66.4375 C45.633125 66.293125 44.82875 66.14875 44 66 C44.66 67.32 45.32 68.64 46 70 C66.62399526 71.06675838 84.24783078 64.97007836 101 53 C101.66 53.33 102.32 53.66 103 54 C88.72745838 68.20676954 71.93494044 76.22459331 51.61791992 76.32348633 C42.49012913 76.18508236 35.04449058 73.12537979 27 69 C26.01 69 25.02 69 24 69 C25.03638799 72.44947049 26.26133127 73.1584732 29.4140625 75.0703125 C30.81153308 75.76772192 32.21550325 76.4522275 33.625 77.125 C34.31207031 77.47175781 34.99914062 77.81851563 35.70703125 78.17578125 C50.74371038 85.53895808 69.31680189 84.98833439 85.18359375 80.421875 C92.10492231 78.00022813 98.58412905 74.51507823 105 71 C105.33 71.66 105.66 72.32 106 73 C86.59668543 86.3957007 69.6762167 91.94339685 45.875 88 C44.2468683 87.68231577 42.62022599 87.35581434 41 87 C41 88.65 41 90.3 41 92 C43.04009755 92.65077296 45.08215669 93.29539824 47.125 93.9375 C48.83042969 94.47697266 48.83042969 94.47697266 50.5703125 95.02734375 C67.27053254 99.76351094 84.08030857 96.68968676 100.03466797 90.94482422 C102.00561447 90.24515315 104.0014443 89.61639665 106 89 C106.66 89.33 107.32 89.66 108 90 C94.01585945 101.02814336 76.30189816 103.27144818 59 102 C55.97030423 101.40850434 53.17270079 100.66876549 50.26171875 99.65625 C47.74872942 98.92709247 45.60320405 98.88942142 43 99 C42.67 100.65 42.34 102.3 42 104 C43.02673828 104.185625 43.02673828 104.185625 44.07421875 104.375 C47.38239839 105.08168724 50.57239926 106.02832701 53.8125 107 C71.46013817 112.04218234 88.99162152 110.45143145 106.5390625 105.48828125 C109 105 109 105 112 106 C96.65526421 113.22945653 81.68235142 114.50884448 65 115 C64.67 115.66 64.34 116.32 64 117 C45.7969859 115.73002227 30.85630876 103.50203623 18.875 90.75 C12.42118406 83.27716049 3 71.36062794 3 61 C2.34 61 1.68 61 1 61 C-3.995302 39.13226837 -5.75721647 21.74377292 0 0 Z " fill="#B91B5A" transform="translate(218,370)"/>
<path d="M0 0 C0.33 0 0.66 0 1 0 C1.93033061 4.90042279 2.28882288 9.71065199 2.53515625 14.6796875 C2.59962196 15.89883347 2.59962196 15.89883347 2.66539001 17.14260864 C2.80094405 19.71991789 2.93179262 22.29744087 3.0625 24.875 C3.15398541 26.63022459 3.24577905 28.38543315 3.33789062 30.140625 C3.56216105 34.42690598 3.78221383 38.71338486 4 43 C5.2131359 36.76396826 6.24814399 30.65624279 6.625 24.3125 C6.69976562 23.11238281 6.77453125 21.91226562 6.8515625 20.67578125 C6.92503906 19.35126953 6.92503906 19.35126953 7 18 C9.84531332 20.84531332 9.40618344 22.99436614 9.6328125 26.9765625 C9.67437469 27.66181 9.71593689 28.3470575 9.75875854 29.05307007 C9.88958534 31.24330351 10.00743748 33.43401842 10.125 35.625 C10.21138654 37.10942489 10.29861567 38.593801 10.38671875 40.078125 C10.60252115 43.71826356 10.80077061 47.35876503 11 51 C11.66 45.06 12.32 39.12 13 33 C14.95216435 36.90432869 15.50639991 39.72213252 16 44 C16.99 43.67 17.98 43.34 19 43 C19.99 48.94 19.99 48.94 21 55 C21.33 53.02 21.66 51.04 22 49 C22.66 49 23.32 49 24 49 C24.495 51.475 24.495 51.475 25 54 C26.81115956 52.18884044 26.38199448 49.38721773 26.5625 46.9375 C26.64628906 45.83277344 26.73007813 44.72804688 26.81640625 43.58984375 C26.87699219 42.73519531 26.93757813 41.88054687 27 41 C27.66 41 28.32 41 29 41 C29.495 48.425 29.495 48.425 30 56 C30.66 56 31.32 56 32 56 C32 54.68 32 53.36 32 52 C32.66 52 33.32 52 34 52 C34 53.32 34 54.64 34 56 C34.66 56 35.32 56 36 56 C36.495 55.01 36.495 55.01 37 54 C39.31 54.66 41.62 55.32 44 56 C44 56.66 44 57.32 44 58 C51.26 58 58.52 58 66 58 C66.33 58.66 66.66 59.32 67 60 C62.87536584 60.19622046 58.75028427 60.38050216 54.625 60.5625 C52.8615625 60.64661133 52.8615625 60.64661133 51.0625 60.73242188 C49.94101562 60.78076172 48.81953125 60.82910156 47.6640625 60.87890625 C46.62717285 60.9260376 45.5902832 60.97316895 44.52197266 61.02172852 C42 61 42 61 40 60 C39.67 60.66 39.34 61.32 39 62 C38.01 62.66 37.02 63.32 36 64 C36 63.01 36 62.02 36 61 C35.34 61 34.68 61 34 61 C34 62.32 34 63.64 34 65 C33.34 65 32.68 65 32 65 C32 63.68 32 62.36 32 61 C31.34 61 30.68 61 30 61 C29.505 66.94 29.505 66.94 29 73 C26.69960876 69.54941314 26.5261725 67.05904498 26 63 C25.67 62.67 25.34 62.34 25 62 C24.34 63.65 23.68 65.3 23 67 C22.67 67 22.34 67 22 67 C21.505 64.03 21.505 64.03 21 61 C20.87882812 61.78246094 20.75765625 62.56492187 20.6328125 63.37109375 C20.46523437 64.38300781 20.29765625 65.39492188 20.125 66.4375 C19.96257812 67.44683594 19.80015625 68.45617187 19.6328125 69.49609375 C19.31957031 70.73552734 19.31957031 70.73552734 19 72 C18.01 72.495 18.01 72.495 17 73 C16.67 71.02 16.34 69.04 16 67 C15.95101562 67.75925781 15.90203125 68.51851563 15.8515625 69.30078125 C15.77679688 70.29464844 15.70203125 71.28851563 15.625 72.3125 C15.55539063 73.29863281 15.48578125 74.28476562 15.4140625 75.30078125 C15 78 15 78 13 81 C12.01 75.555 12.01 75.555 11 70 C10.87882812 71.83046875 10.75765625 73.6609375 10.6328125 75.546875 C10.46398705 77.94794802 10.29469177 80.34898805 10.125 82.75 C10.04636719 83.9565625 9.96773438 85.163125 9.88671875 86.40625 C9.76103516 88.14648438 9.76103516 88.14648438 9.6328125 89.921875 C9.55949707 90.99018555 9.48618164 92.05849609 9.41064453 93.15917969 C9.01780318 95.87683843 8.38915012 97.65673609 7 100 C6.68261302 96.87543302 6.37110417 93.75043795 6.0625 90.625 C5.97548828 89.77421875 5.88847656 88.9234375 5.79882812 88.046875 C4.91844994 79.04745359 4.46410342 70.02846686 4 61 C3.97716446 61.62560822 3.95432892 62.25121643 3.93080139 62.89578247 C3.69199442 69.41735413 3.44777614 75.93870732 3.20043945 82.45996094 C3.10888606 84.89252643 3.01870442 87.32514395 2.92993164 89.7578125 C2.80196468 93.25795907 2.66903752 96.75788777 2.53515625 100.2578125 C2.47727684 101.88470505 2.47727684 101.88470505 2.41822815 103.54446411 C2.22649401 108.44075048 1.99133444 113.18494702 1 118 C0.67 118 0.34 118 0 118 C-0.99 94.735 -0.99 94.735 -2 71 C-3.41634833 73.83269666 -3.3463005 76.47466438 -3.5625 79.625 C-3.68818359 81.40777344 -3.68818359 81.40777344 -3.81640625 83.2265625 C-3.87699219 84.14179688 -3.93757813 85.05703125 -4 86 C-4.66 86 -5.32 86 -6 86 C-6.99 78.08 -6.99 78.08 -8 70 C-8.99 80.23 -9.98 90.46 -11 101 C-11.33 101 -11.66 101 -12 101 C-12.34067818 96.58386849 -12.67116693 92.16702805 -13 87.75 C-13.09539062 86.51507813 -13.19078125 85.28015625 -13.2890625 84.0078125 C-13.85545219 76.32109524 -14.1286296 68.70705674 -14 61 C-14.66 61 -15.32 61 -16 61 C-15.97679687 61.66644531 -15.95359375 62.33289063 -15.9296875 63.01953125 C-15.79462106 69.91756737 -16.54053417 76.26300148 -18 83 C-18.33 83 -18.66 83 -19 83 C-19.13277344 81.85660156 -19.26554687 80.71320313 -19.40234375 79.53515625 C-19.5805031 78.0442438 -19.75890082 76.55335982 -19.9375 75.0625 C-20.02451172 74.30775391 -20.11152344 73.55300781 -20.20117188 72.77539062 C-20.34324099 69.07812542 -20.34324099 69.07812542 -22 66 C-22.33 67.98 -22.66 69.96 -23 72 C-25.45823172 68.31265242 -26.01242616 65.30300029 -27 61 C-27.33 62.32 -27.66 63.64 -28 65 C-28.66 65 -29.32 65 -30 65 C-30 63.68 -30 62.36 -30 61 C-30.66 61 -31.32 61 -32 61 C-32.495 66.94 -32.495 66.94 -33 73 C-36.00617269 69.99382731 -35.59585316 67.17618402 -36 63 C-36.99 64.32 -37.98 65.64 -39 67 C-39.66 65.35 -40.32 63.7 -41 62 C-41.763125 62.020625 -42.52625 62.04125 -43.3125 62.0625 C-46 62 -46 62 -49 61 C-50.33451263 60.88764839 -51.67354389 60.82424351 -53.01245117 60.79467773 C-53.81305466 60.77473251 -54.61365814 60.75478729 -55.43852234 60.73423767 C-56.29798965 60.71752518 -57.15745697 60.70081268 -58.04296875 60.68359375 C-58.9265657 60.66281265 -59.81016266 60.64203156 -60.72053528 60.62062073 C-63.54277785 60.55524246 -66.36511335 60.49629472 -69.1875 60.4375 C-71.10092106 60.39430363 -73.01433273 60.35068898 -74.92773438 60.30664062 C-79.61839437 60.19957305 -84.30914783 60.09827248 -89 60 C-89 59.34 -89 58.68 -89 58 C-87.73816895 57.98018066 -86.47633789 57.96036133 -85.17626953 57.93994141 C-80.50581508 57.86401235 -75.8356774 57.77527588 -71.16552734 57.68261719 C-69.14215334 57.64427479 -67.11870994 57.60943129 -65.09521484 57.578125 C-62.19082797 57.53258831 -59.28692106 57.47457591 -56.3828125 57.4140625 C-55.47443634 57.40251129 -54.56606018 57.39096008 -53.63015747 57.37905884 C-52.78943695 57.35918915 -51.94871643 57.33931946 -51.08251953 57.31884766 C-50.34083527 57.30552399 -49.599151 57.29220032 -48.83499146 57.2784729 C-46.7526636 57.14800271 -46.7526636 57.14800271 -45 55 C-43.68 55 -42.36 55 -41 55 C-39.2488427 53.5833253 -39.2488427 53.5833253 -38 52 C-37.67 52.66 -37.34 53.32 -37 54 C-35.515 48.555 -35.515 48.555 -34 43 C-33.67 43 -33.34 43 -33 43 C-32.34 46.63 -31.68 50.26 -31 54 C-30.34 52.35 -29.68 50.7 -29 49 C-28.67 49 -28.34 49 -28 49 C-28 51.31 -28 53.62 -28 56 C-27.34 56 -26.68 56 -26 56 C-25.855625 54.783125 -25.71125 53.56625 -25.5625 52.3125 C-25.17219047 49.17329623 -24.67648144 46.0924866 -24 43 C-23.67 43 -23.34 43 -23 43 C-22.505 46.96 -22.505 46.96 -22 51 C-20.42679728 49.42679728 -20.67057664 47.70811236 -20.46484375 45.52734375 C-20.37783203 44.62822266 -20.29082031 43.72910156 -20.20117188 42.80273438 C-20.11416016 41.85720703 -20.02714844 40.91167969 -19.9375 39.9375 C-19.84662109 38.98810547 -19.75574219 38.03871094 -19.66210938 37.06054688 C-19.43743502 34.70737865 -19.21691818 32.35389381 -19 30 C-16.92583333 33.11125001 -16.67255906 34.2876968 -16.3671875 37.88671875 C-16.24150391 39.2934082 -16.24150391 39.2934082 -16.11328125 40.72851562 C-16.03464844 41.70498047 -15.95601563 42.68144531 -15.875 43.6875 C-15.78863281 44.67556641 -15.70226562 45.66363281 -15.61328125 46.68164062 C-15.40120277 49.12054315 -15.19708799 51.55984788 -15 54 C-14.94465088 53.16863525 -14.88930176 52.33727051 -14.83227539 51.48071289 C-14.62323523 48.35511659 -14.41241384 45.22964662 -14.20043945 42.10424805 C-14.06522213 40.10279236 -13.93200456 38.1012019 -13.79882812 36.09960938 C-13.34159863 29.37664234 -12.81506068 22.68937192 -12 16 C-11.67 16 -11.34 16 -11 16 C-10.19836063 19.65582791 -9.75179855 23.22661879 -9.46484375 26.95703125 C-9.37783203 28.06884766 -9.29082031 29.18066406 -9.20117188 30.32617188 C-9.11416016 31.47666016 -9.02714844 32.62714844 -8.9375 33.8125 C-8.80118164 35.56723633 -8.80118164 35.56723633 -8.66210938 37.35742188 C-8.4387119 40.23807357 -8.21899773 43.11901048 -8 46 C-7.34 39.4 -6.68 32.8 -6 26 C-5.67 26 -5.34 26 -5 26 C-3.55588432 33.22057838 -3.43240395 40.64913277 -3 48 C-2.01 32.16 -1.02 16.32 0 0 Z " fill="#DCA40F" transform="translate(207,257)"/>
<path d="M0 0 C0.33 0 0.66 0 1 0 C1.74682497 6.2507367 2.2699512 12.46230339 2.5625 18.75 C2.6049585 19.64162842 2.64741699 20.53325684 2.69116211 21.4519043 C3.11885595 31.30091045 3.08987119 41.14412667 3 51 C3.66 51 4.32 51 5 51 C4.98839844 49.82824219 4.97679687 48.65648437 4.96484375 47.44921875 C4.90665739 38.90855219 4.95241706 30.49290452 6 22 C10.72532053 30.16366352 9.13233209 41.8837895 9 51 C9.66 51 10.32 51 11 51 C10.99476318 50.33057373 10.98952637 49.66114746 10.98413086 48.97143555 C10.96307529 45.87680029 10.9502503 42.78218019 10.9375 39.6875 C10.92912109 38.63498047 10.92074219 37.58246094 10.91210938 36.49804688 C10.89090579 29.60688314 11.24328318 22.84969487 12 16 C13.485 16.495 13.485 16.495 15 17 C15.99 30.365 15.99 30.365 17 44 C17.28875 41.710625 17.5775 39.42125 17.875 37.0625 C18.17330206 34.69739079 18.53193355 32.33744294 19 30 C19.99 29.505 19.99 29.505 21 29 C21.99 36.92 21.99 36.92 23 45 C23.66 42.69 24.32 40.38 25 38 C25.33 38 25.66 38 26 38 C26.99 44.435 26.99 44.435 28 51 C28.66 51 29.32 51 30 51 C30.33 48.36 30.66 45.72 31 43 C33 46 33 46 34 48 C34.495 43.05 34.495 43.05 35 38 C37.18994248 41.28491373 37.35277339 42.83095639 37.625 46.6875 C37.73714844 48.17830078 37.73714844 48.17830078 37.8515625 49.69921875 C37.92503906 50.83810547 37.92503906 50.83810547 38 52 C38.66 52 39.32 52 40 52 C40 50.68 40 49.36 40 48 C40.66 48 41.32 48 42 48 C42.33 48.99 42.66 49.98 43 51 C44.32 51 45.64 51 47 51 C47.33 51.66 47.66 52.32 48 53 C48.99 52.67 49.98 52.34 51 52 C53.21254987 51.98398919 55.42581776 52.03420244 57.63671875 52.12109375 C58.93544922 52.16943359 60.23417969 52.21777344 61.57226562 52.26757812 C62.94401533 52.32409952 64.31576007 52.38074169 65.6875 52.4375 C67.07094416 52.49074051 68.45440766 52.54348078 69.83789062 52.59570312 C73.22548325 52.72554117 76.61279314 52.86051375 80 53 C80 53.66 80 54.32 80 55 C75.7643915 55.16752496 71.52859426 55.32809332 67.29248047 55.48217773 C65.85100177 55.5355959 64.40959259 55.59092518 62.96826172 55.64819336 C60.89826447 55.73010997 58.82811573 55.80518359 56.7578125 55.87890625 C55.5114502 55.9260376 54.26508789 55.97316895 52.98095703 56.02172852 C50 56 50 56 48 55 C47.505 55.99 47.505 55.99 47 57 C47 56.34 47 55.68 47 55 C46.34 55 45.68 55 45 55 C45 55.66 45 56.32 45 57 C44.34 57 43.68 57 43 57 C42.505 57.99 42.505 57.99 42 59 C41.34 59 40.68 59 40 59 C40 58.01 40 57.02 40 56 C39.34 56 38.68 56 38 56 C37.67 60.62 37.34 65.24 37 70 C36.34 70 35.68 70 35 70 C35 65.38 35 60.76 35 56 C34.34 56 33.68 56 33 56 C32.67 57.98 32.34 59.96 32 62 C31.34 61.34 30.68 60.68 30 60 C30 58.68 30 57.36 30 56 C29.34 56 28.68 56 28 56 C27.92652344 57.01320313 27.92652344 57.01320313 27.8515625 58.046875 C27.77679688 58.93890625 27.70203125 59.8309375 27.625 60.75 C27.52058594 62.07257813 27.52058594 62.07257813 27.4140625 63.421875 C27 66 27 66 25 70 C24.505 65.545 24.505 65.545 24 61 C23.67 61 23.34 61 23 61 C22.01 70.9 22.01 70.9 21 81 C20.34 80.67 19.68 80.34 19 80 C18.58935547 78.14233398 18.58935547 78.14233398 18.3671875 75.74609375 C18.25286377 74.59258423 18.25286377 74.59258423 18.13623047 73.41577148 C18.05002441 72.43294189 17.96381836 71.4501123 17.875 70.4375 C17.58625 67.323125 17.2975 64.20875 17 61 C16.01 71.89 15.02 82.78 14 94 C8.64465466 83.28930933 10.89328787 67.78576206 11 56 C10.34 56 9.68 56 9 56 C9.02320313 56.90878906 9.04640625 57.81757813 9.0703125 58.75390625 C9.20366672 68.04107518 8.45794176 76.82277732 7 86 C6.67 86 6.34 86 6 86 C5.01 71.15 5.01 71.15 4 56 C3.814375 61.81625 3.814375 61.81625 3.625 67.75 C3.22008177 79.23164904 2.32635645 90.59075907 1 102 C0.67 102 0.34 102 0 102 C-1.40414422 86.29487101 -2.30132002 70.76908086 -2 55 C-2.66 55 -3.32 55 -4 55 C-3.97679687 56.05574219 -3.95359375 57.11148438 -3.9296875 58.19921875 C-3.75351243 70.2479418 -4.67780889 82.02944836 -6 94 C-6.33 94 -6.66 94 -7 94 C-8.54166259 80.93716249 -9.26780549 68.1522251 -9 55 C-9.66 55 -10.32 55 -11 55 C-10.97679687 55.76183594 -10.95359375 56.52367187 -10.9296875 57.30859375 C-10.81435162 63.90745394 -11.29935867 69.62259502 -13 76 C-13.33 76 -13.66 76 -14 76 C-14.66 70.39 -15.32 64.78 -16 59 C-17.66342837 60.66342837 -17.36048097 62.7825709 -17.5625 65.0625 C-17.64628906 65.98160156 -17.73007812 66.90070313 -17.81640625 67.84765625 C-17.90728516 68.91306641 -17.90728516 68.91306641 -18 70 C-18.33 70 -18.66 70 -19 70 C-19.99 65.38 -20.98 60.76 -22 56 C-22.66 57.65 -23.32 59.3 -24 61 C-24.99 60.505 -24.99 60.505 -26 60 C-26.33 63.3 -26.66 66.6 -27 70 C-29.41887085 67.58112915 -29.49376963 66.25907651 -30.0625 62.9375 C-30.41027566 59.66916048 -30.41027566 59.66916048 -32 57 C-32.66 58.32 -33.32 59.64 -34 61 C-34.66 59.68 -35.32 58.36 -36 57 C-36.763125 57.020625 -37.52625 57.04125 -38.3125 57.0625 C-41 57 -41 57 -44 56 C-45.9920303 55.91708047 -47.98673713 55.89261823 -49.98046875 55.90234375 C-51.72553711 55.90717773 -51.72553711 55.90717773 -53.50585938 55.91210938 C-55.32827148 55.92467773 -55.32827148 55.92467773 -57.1875 55.9375 C-59.02731445 55.94426758 -59.02731445 55.94426758 -60.90429688 55.95117188 C-63.93624668 55.96296935 -66.96809906 55.97943079 -70 56 C-70.495 54.515 -70.495 54.515 -71 53 C-69.73724243 52.97812622 -69.73724243 52.97812622 -68.44897461 52.95581055 C-65.2970731 52.89440846 -62.14579539 52.82019269 -58.99438477 52.73754883 C-57.63577457 52.70449066 -56.27703334 52.67640039 -54.91821289 52.65356445 C-42.9537651 52.78495528 -42.9537651 52.78495528 -33 47 C-32.34 47.99 -31.68 48.98 -31 50 C-30.87882812 49.21753906 -30.75765625 48.43507813 -30.6328125 47.62890625 C-30.38144531 46.11103516 -30.38144531 46.11103516 -30.125 44.5625 C-29.88136719 43.04849609 -29.88136719 43.04849609 -29.6328125 41.50390625 C-29.42398438 40.67761719 -29.21515625 39.85132813 -29 39 C-28.34 38.67 -27.68 38.34 -27 38 C-26.505 42.455 -26.505 42.455 -26 47 C-25.34 46.34 -24.68 45.68 -24 45 C-23.34 46.65 -22.68 48.3 -22 50 C-20.515 44.06 -20.515 44.06 -19 38 C-18.67 38 -18.34 38 -18 38 C-17.505 41.96 -17.505 41.96 -17 46 C-15.15433468 42.01606389 -14.63977171 38.55623317 -14.375 34.1875 C-14.30023438 33.02605469 -14.22546875 31.86460937 -14.1484375 30.66796875 C-14.09945312 29.78753906 -14.05046875 28.90710938 -14 28 C-9.58388849 34.62416726 -10.89619848 43.33022073 -11 51 C-10.34 51 -9.68 51 -9 51 C-9.02320313 49.96746094 -9.04640625 48.93492187 -9.0703125 47.87109375 C-9.2590065 35.15488686 -8.27173359 22.64630819 -7 10 C-6.67 10 -6.34 10 -6 10 C-4.70309019 20.99225502 -3.61947712 31.94722405 -3 43 C-2.96241577 42.09290283 -2.96241577 42.09290283 -2.92407227 41.16748047 C-2.80736994 38.4031438 -2.68498266 35.63908634 -2.5625 32.875 C-2.52318359 31.92367188 -2.48386719 30.97234375 -2.44335938 29.9921875 C-2.22879741 25.23881482 -1.82478814 20.69098256 -1 16 C-0.75142048 13.21158624 -0.59165661 10.42003631 -0.4375 7.625 C-0.37272461 6.52091797 -0.37272461 6.52091797 -0.30664062 5.39453125 C-0.20156201 3.59651932 -0.10037907 1.79828042 0 0 Z " fill="#BE1859" transform="translate(423,262)"/>
<path d="M0 0 C-1.32 0.33 -2.64 0.66 -4 1 C-4 1.99 -4 2.98 -4 4 C-2.02 4 -0.04 4 2 4 C2 4.66 2 5.32 2 6 C2.556875 6.04125 3.11375 6.0825 3.6875 6.125 C7.17546488 7.44477049 9.20957649 9.82412972 11 13 C11.53763624 16.83065824 11.36532395 19.12728167 9.875 22.6875 C6.61786681 26.70463093 3.63645122 28.73699891 -1.5 29.5625 C-6.17380713 28.81135242 -7.71357251 27.36467576 -11 24 C-12.1577506 20.52674819 -12.06866652 17.63932552 -12 14 C-13.19109375 14.0721875 -14.3821875 14.144375 -15.609375 14.21875 C-30.74405529 15.06874055 -45.84486897 15.10750666 -61 15 C-57.4023883 9.60358245 -50.09635357 8.49935734 -44 7 C-39.0520405 6.0133767 -34.07482737 5.22806395 -29.08886719 4.46044922 C-21.75695756 3.32898168 -14.5608178 1.89901409 -7.35620117 0.13061523 C-2.20181823 -1.10090912 -2.20181823 -1.10090912 0 0 Z " fill="#0C284C" transform="translate(385,194)"/>
<path d="M0 0 C2.30394797 2.30394797 2.62666464 3.72469541 3.5625 6.8125 C8.60824218 21.08688587 18.38283019 31.21494314 31.86816406 37.71264648 C47.71198272 45.02991088 63.26479734 42.29602875 79.25390625 36.90234375 C86.91174952 33.95701941 93.35704142 29.74665302 100 25 C100.66 25.33 101.32 25.66 102 26 C87.74684635 40.18747091 70.91475452 48.27751287 50.60913086 48.31689453 C35.67241471 48.05745977 23.295772 40.39496056 13 30 C5.62022456 22.12367354 0.43227304 10.80682593 0 0 Z " fill="#101E51" transform="translate(219,398)"/>
<path d="M0 0 C1.67344446 3.10467986 2.72670631 6.19191419 3.75 9.5625 C9.18400496 25.86451488 19.3463158 38.51884468 34.72265625 46.39453125 C50.97364799 54.15119443 70.986466 54.73907336 88.04248047 48.77148438 C94.25470676 46.32316371 100.15130289 43.20433937 106 40 C106.33 40.66 106.66 41.32 107 42 C88.00350362 55.11484072 71.60787238 60.58182897 48.25 57.4375 C32.18750646 53.8461921 18.85259278 42.57252554 10 29 C4.50158439 20.00050555 -0.32731813 10.78224414 0 0 Z " fill="#141F52" transform="translate(217,401)"/>
<path d="M0 0 C2.71093564 1.94659476 4.45360407 4.04778959 6 7 C6.60395126 10.89213031 6.3877643 13.07367417 4.875 16.6875 C1.61786681 20.70463093 -1.36354878 22.73699891 -6.5 23.5625 C-11.17380713 22.81135242 -12.71357251 21.36467576 -16 18 C-17.44909798 13.65270606 -17.78773261 9.53126926 -17 5 C-12.60879505 -0.98555013 -6.7651795 -2.0170887 0 0 Z " fill="#C5175A" transform="translate(390,200)"/>
<path d="M0 0 C3.34433784 2.42628432 4.33823647 3.34927019 5.1875 7.3125 C5.69506495 11.28842546 5.35821399 12.99545973 3.4375 16.5625 C0.27224576 20.43114407 0.27224576 20.43114407 -2.8125 21.3125 C-7.27308507 21.63690619 -10.95854155 21.7082039 -14.8125 19.3125 C-17.31805789 15.79117539 -18.62063767 13.48765678 -19.3125 9.25 C-18.55817888 4.81836345 -16.5932398 1.66340606 -13 -1.0625 C-8.28829646 -2.40870101 -4.34428863 -2.23549852 0 0 Z " fill="#C5185A" transform="translate(390.8125,228.6875)"/>
<path d="M0 0 C3.69804505 2.39708609 7.19646652 4.89501739 10.64038086 7.65380859 C27.86185151 21.38814694 47.64646097 25.8353539 69.4375 23.65625 C75.93816429 22.71865419 82.22074285 21.2753663 88.5390625 19.48828125 C91 19 91 19 94 20 C78.65526421 27.22945653 63.68235142 28.50884448 47 29 C46.67 29.66 46.34 30.32 46 31 C29.10159758 29.82104169 14.15551212 18.95958904 3.04296875 6.87109375 C1.66468233 5.27331441 0.3266741 3.64088639 -1 2 C-0.67 1.34 -0.34 0.68 0 0 Z " fill="#B41B5B" transform="translate(236,456)"/>
<path d="M0 0 C0.61875 0.639375 1.2375 1.27875 1.875 1.9375 C17.23057399 17.16330857 32.89769872 26.08925801 54.9375 26.25 C66.40975524 26.14026888 76.30458863 23.80852249 87.03466797 19.94482422 C89.00561447 19.24515315 91.0014443 18.61639665 93 18 C93.66 18.33 94.32 18.66 95 19 C80.92572932 30.09922159 63.37065301 32.11514316 46 31 C42.13097001 30.39930708 38.65881948 29.37553792 35 28 C34.03964844 27.67128906 33.07929688 27.34257812 32.08984375 27.00390625 C20.44887499 22.66295145 9.85270315 14.64861284 2 5 C0.7578125 2.234375 0.7578125 2.234375 0 0 Z " fill="#1A1D50" transform="translate(231,441)"/>
<path d="M0 0 C0.33 0 0.66 0 1 0 C1.66 3.63 2.32 7.26 3 11 C3.66 9.35 4.32 7.7 5 6 C5.33 6 5.66 6 6 6 C6 8.31 6 10.62 6 13 C6.66 13 7.32 13 8 13 C7.41196203 16.02419525 6.77321882 19.01758453 6 22 C5.34 22 4.68 22 4 22 C4 20.68 4 19.36 4 18 C3.34 18 2.68 18 2 18 C1.67 21.96 1.34 25.92 1 30 C-2.00617269 26.99382731 -1.59585316 24.17618402 -2 20 C-2.99 21.32 -3.98 22.64 -5 24 C-5.66 22.35 -6.32 20.7 -7 19 C-7.763125 19.020625 -8.52625 19.04125 -9.3125 19.0625 C-12 19 -12 19 -15 18 C-16.33451263 17.88764839 -17.67354389 17.82424351 -19.01245117 17.79467773 C-19.81305466 17.77473251 -20.61365814 17.75478729 -21.43852234 17.73423767 C-22.29798965 17.71752518 -23.15745697 17.70081268 -24.04296875 17.68359375 C-24.9265657 17.66281265 -25.81016266 17.64203156 -26.72053528 17.62062073 C-29.54277785 17.55524246 -32.36511335 17.49629472 -35.1875 17.4375 C-37.10092106 17.39430363 -39.01433273 17.35068898 -40.92773438 17.30664062 C-45.61839437 17.19957305 -50.30914783 17.09827248 -55 17 C-55 16.34 -55 15.68 -55 15 C-53.73816895 14.98018066 -52.47633789 14.96036133 -51.17626953 14.93994141 C-46.50581508 14.86401235 -41.8356774 14.77527588 -37.16552734 14.68261719 C-35.14215334 14.64427479 -33.11870994 14.60943129 -31.09521484 14.578125 C-28.19082797 14.53258831 -25.28692106 14.47457591 -22.3828125 14.4140625 C-21.47443634 14.40251129 -20.56606018 14.39096008 -19.63015747 14.37905884 C-18.78943695 14.35918915 -17.94871643 14.33931946 -17.08251953 14.31884766 C-16.34083527 14.30552399 -15.599151 14.29220032 -14.83499146 14.2784729 C-12.7526636 14.14800271 -12.7526636 14.14800271 -11 12 C-9.68 12 -8.36 12 -7 12 C-5.2488427 10.5833253 -5.2488427 10.5833253 -4 9 C-3.505 9.99 -3.505 9.99 -3 11 C-1.515 5.555 -1.515 5.555 0 0 Z " fill="#DBA40F" transform="translate(173,300)"/>
<path d="M0 0 C2.18994248 3.28491373 2.35277339 4.83095639 2.625 8.6875 C2.69976562 9.68136719 2.77453125 10.67523438 2.8515625 11.69921875 C2.90054687 12.45847656 2.94953125 13.21773438 3 14 C3.66 14 4.32 14 5 14 C5 12.68 5 11.36 5 10 C5.66 10 6.32 10 7 10 C7.33 10.99 7.66 11.98 8 13 C9.32 13 10.64 13 12 13 C12.33 13.66 12.66 14.32 13 15 C13.99 14.67 14.98 14.34 16 14 C18.21254987 13.98398919 20.42581776 14.03420244 22.63671875 14.12109375 C23.93544922 14.16943359 25.23417969 14.21777344 26.57226562 14.26757812 C27.94401533 14.32409952 29.31576007 14.38074169 30.6875 14.4375 C32.07094416 14.49074051 33.45440766 14.54348078 34.83789062 14.59570312 C38.22548325 14.72554117 41.61279314 14.86051375 45 15 C45 15.66 45 16.32 45 17 C40.7643915 17.16752496 36.52859426 17.32809332 32.29248047 17.48217773 C30.85100177 17.5355959 29.40959259 17.59092518 27.96826172 17.64819336 C25.89826447 17.73010997 23.82811573 17.80518359 21.7578125 17.87890625 C20.5114502 17.9260376 19.26508789 17.97316895 17.98095703 18.02172852 C15 18 15 18 13 17 C12.67 17.66 12.34 18.32 12 19 C12 18.34 12 17.68 12 17 C11.34 17 10.68 17 10 17 C10 17.66 10 18.32 10 19 C9.34 19 8.68 19 8 19 C7.67 19.66 7.34 20.32 7 21 C6.34 21 5.68 21 5 21 C5 20.01 5 19.02 5 18 C4.34 18 3.68 18 3 18 C2.67 22.62 2.34 27.24 2 32 C1.34 32 0.68 32 0 32 C0 27.38 0 22.76 0 18 C-0.66 18 -1.32 18 -2 18 C-2.33 19.98 -2.66 21.96 -3 24 C-5.71649474 21.28350526 -5.966367 18.70635644 -6 15 C-5.51289818 11.61980857 -4.80758702 8.31711363 -4 5 C-2 8 -2 8 -1 10 C-0.67 6.7 -0.34 3.4 0 0 Z " fill="#B71859" transform="translate(458,300)"/>
<path d="M0 0 C0.33 0 0.66 0 1 0 C1.495 4.455 1.495 4.455 2 9 C2.66 8.34 3.32 7.68 4 7 C4.625 9.3125 4.625 9.3125 5 12 C4.34 12.99 3.68 13.98 3 15 C3 15.66 3 16.32 3 17 C3.66 17 4.32 17 5 17 C4.67 18.98 4.34 20.96 4 23 C3.34 22.67 2.68 22.34 2 22 C1.67 25.3 1.34 28.6 1 32 C-1.41887085 29.58112915 -1.49376963 28.25907651 -2.0625 24.9375 C-2.41027566 21.66916048 -2.41027566 21.66916048 -4 19 C-4.66 20.32 -5.32 21.64 -6 23 C-6.66 21.68 -7.32 20.36 -8 19 C-8.763125 19.020625 -9.52625 19.04125 -10.3125 19.0625 C-13 19 -13 19 -16 18 C-17.9920303 17.91708047 -19.98673713 17.89261823 -21.98046875 17.90234375 C-23.72553711 17.90717773 -23.72553711 17.90717773 -25.50585938 17.91210938 C-27.32827148 17.92467773 -27.32827148 17.92467773 -29.1875 17.9375 C-31.02731445 17.94426758 -31.02731445 17.94426758 -32.90429688 17.95117188 C-35.93624668 17.96296935 -38.96809906 17.97943079 -42 18 C-42.33 17.01 -42.66 16.02 -43 15 C-41.73724243 14.97812622 -41.73724243 14.97812622 -40.44897461 14.95581055 C-37.2970731 14.89440846 -34.14579539 14.82019269 -30.99438477 14.73754883 C-29.63577457 14.70449066 -28.27703334 14.67640039 -26.91821289 14.65356445 C-14.9537651 14.78495528 -14.9537651 14.78495528 -5 9 C-4.34 9.99 -3.68 10.98 -3 12 C-2.86722656 11.21753906 -2.73445313 10.43507813 -2.59765625 9.62890625 C-2.42105469 8.61699219 -2.24445313 7.60507812 -2.0625 6.5625 C-1.88847656 5.55316406 -1.71445312 4.54382813 -1.53515625 3.50390625 C-1 1 -1 1 0 0 Z " fill="#B2195A" transform="translate(395,300)"/>
<path d="M0 0 C0.33 0 0.66 0 1 0 C2.09315246 4.5838914 2.32282625 9.12511007 2.5625 13.8125 C2.60568359 14.60076172 2.64886719 15.38902344 2.69335938 16.20117188 C2.79878321 18.13394215 2.89983094 20.06695026 3 22 C3.33 18.04 3.66 14.08 4 10 C4.33 10 4.66 10 5 10 C5.02887512 13.64581687 5.04675585 17.29160463 5.0625 20.9375 C5.07087891 21.97841797 5.07925781 23.01933594 5.08789062 24.09179688 C5.09111328 25.08115234 5.09433594 26.07050781 5.09765625 27.08984375 C5.10289307 28.00628662 5.10812988 28.92272949 5.11352539 29.86694336 C5 32 5 32 4 33 C3.77118462 34.99616505 3.60468312 36.99954193 3.46484375 39.00390625 C3.33432617 40.82631836 3.33432617 40.82631836 3.20117188 42.68554688 C3.0706543 44.60463867 3.0706543 44.60463867 2.9375 46.5625 C2.84662109 47.84576172 2.75574219 49.12902344 2.66210938 50.45117188 C2.43731054 53.63385015 2.21680182 56.81676858 2 60 C1.34 60 0.68 60 0 60 C-3.24311454 39.29113258 -2.67951923 20.68272896 0 0 Z " fill="#D09D14" transform="translate(201,283)"/>
<path d="M0 0 C2.29633824 3.44450737 2.54016485 5.93812283 3 10 C3.66 7.03 4.32 4.06 5 1 C5.66 1 6.32 1 7 1 C7 2.32 7 3.64 7 5 C7.66 5 8.32 5 9 5 C9 3.68 9 2.36 9 1 C10.32 1 11.64 1 13 1 C14.39605469 0.75443359 14.39605469 0.75443359 15.8203125 0.50390625 C19.22711108 -0.03599181 22.42822362 -0.09767119 25.875 -0.0625 C27.02742188 -0.05347656 28.17984375 -0.04445313 29.3671875 -0.03515625 C30.23601562 -0.02355469 31.10484375 -0.01195312 32 0 C29.92677345 2.07322655 28.61359726 2.6738974 25.9375 3.75 C17.97326221 7.20159583 11.43719853 12.24760982 5 18 C1.02175579 15.34783719 0.74372756 13.01513999 -0.50390625 8.5546875 C-1.10433349 5.46272362 -0.87386176 3.01879518 0 0 Z " fill="#0D2B4D" transform="translate(232,317)"/>
<path d="M0 0 C16.5 0 33 0 50 0 C50 1.65 50 3.3 50 5 C14.31683845 6.19388403 14.31683845 6.19388403 -1 6 C-1 5.67 -1 5.34 -1 5 C5.435 4.505 5.435 4.505 12 4 C12 3.67 12 3.34 12 3 C7.71 2.67 3.42 2.34 -1 2 C-0.67 1.34 -0.34 0.68 0 0 Z " fill="#C7971B" transform="translate(323,208)"/>
<path d="M0 0 C2.19835844 1.08369782 4.36813479 2.19945383 6.5234375 3.3671875 C28.68041837 15.08307053 51.73655109 15.22062697 75.5390625 8.48828125 C78 8 78 8 81 9 C79.21386441 9.80406791 77.42068751 10.59249637 75.625 11.375 C74.62726563 11.81585938 73.62953125 12.25671875 72.6015625 12.7109375 C63.55378394 15.94929642 54.7400921 16.36467845 45.1875 16.375 C44.00607422 16.39949219 42.82464844 16.42398437 41.60742188 16.44921875 C26.33150326 16.49944095 11.52920715 11.17661861 0 1 C0 0.67 0 0.34 0 0 Z " fill="#151E53" transform="translate(249,467)"/>
<path d="M0 0 C2 1 2 1 2.88671875 3.4765625 C4.38917417 9.38377749 5.49095553 14.03617787 4 20 C3.67 20 3.34 20 3 20 C2.34 16.37 1.68 12.74 1 9 C0.87882813 10.83046875 0.75765625 12.6609375 0.6328125 14.546875 C0.46398705 16.94794802 0.29469177 19.34898805 0.125 21.75 C0.04636719 22.9565625 -0.03226563 24.163125 -0.11328125 25.40625 C-0.23896484 27.14648438 -0.23896484 27.14648438 -0.3671875 28.921875 C-0.44050293 29.99018555 -0.51381836 31.05849609 -0.58935547 32.15917969 C-0.98219682 34.87683843 -1.61084988 36.65673609 -3 39 C-4.35798878 26.61918735 -5.3172599 14.4612638 -5 2 C-4.67 2 -4.34 2 -4 2 C-3.34 4.97 -2.68 7.94 -2 11 C-1.34 7.37 -0.68 3.74 0 0 Z " fill="#C79815" transform="translate(217,318)"/>
<path d="M0 0 C6.97020672 -0.02565142 13.94040098 -0.04299139 20.91064453 -0.05493164 C23.27490697 -0.05991682 25.6391664 -0.06670737 28.00341797 -0.07543945 C41.0426068 -0.12234301 53.99958797 -0.0961374 67 1 C67 1.33 67 1.66 67 2 C52.45090338 3.03755014 37.95606841 3.11912343 23.375 3.0625 C21.09635516 3.05747024 18.81770923 3.05290997 16.5390625 3.04882812 C11.02601745 3.03795038 5.51301402 3.02133152 0 3 C0 2.01 0 1.02 0 0 Z " fill="#D5A018" transform="translate(305,237)"/>
<path d="M0 0 C1.67344446 3.10467986 2.72670631 6.19191419 3.75 9.5625 C8.53634551 23.92153652 17.06715826 36.0635845 30.22265625 43.9140625 C32 45 32 45 34 47 C33.67 47.99 33.34 48.98 33 50 C19.83635446 45.51079939 10.56320208 31.02418873 4.4765625 19.25390625 C1.63273616 12.98695562 -0.20974885 6.9093738 0 0 Z " fill="#1A1C50" transform="translate(217,401)"/>
<path d="M0 0 C0.66 0.33 1.32 0.66 2 1 C2.06058594 2.30195313 2.12117188 3.60390625 2.18359375 4.9453125 C2.26804562 6.67188399 2.35269126 8.398446 2.4375 10.125 C2.47681641 10.9809375 2.51613281 11.836875 2.55664062 12.71875 C2.78156402 17.21721792 3.13540883 21.56806207 4 26 C4.33 26 4.66 26 5 26 C5 28.97 5 31.94 5 35 C4.34 35 3.68 35 3 35 C2.34 34.01 1.68 33.02 1 32 C0.01 40.91 -0.98 49.82 -2 59 C-2.33 59 -2.66 59 -3 59 C-4.17402193 51.66236293 -4.09377123 44.41834582 -4 37 C-3.34 37.66 -2.68 38.32 -2 39 C-1.18071496 30.25425785 -0.72819472 21.52802743 -0.4375 12.75 C-0.39431641 11.51636719 -0.35113281 10.28273438 -0.30664062 9.01171875 C-0.20185595 6.00789133 -0.0996846 3.00400025 0 0 Z " fill="#4E1B53" transform="translate(426,317)"/>
<path d="M0 0 C0.33 0 0.66 0 1 0 C1.72211241 7.32921945 2.25190627 14.64205361 2.5625 22 C2.6049585 22.98170166 2.64741699 23.96340332 2.69116211 24.97485352 C3.06547052 34.31900732 3.09818933 43.65019394 3 53 C2.67 53 2.34 53 2 53 C1.93941406 51.91460937 1.87882813 50.82921875 1.81640625 49.7109375 C1.73193936 48.26561514 1.64729449 46.82030318 1.5625 45.375 C1.52318359 44.66214844 1.48386719 43.94929688 1.44335938 43.21484375 C1.19690319 39.08196318 0.76529947 35.07730976 0 31 C-0.495 32.485 -0.495 32.485 -1 34 C-1.99 34 -2.98 34 -4 34 C-4 28.06 -4 22.12 -4 16 C-3.67 16 -3.34 16 -3 16 C-3 19.3 -3 22.6 -3 26 C-2.34 26 -1.68 26 -1 26 C-1.01160156 25.21238281 -1.02320313 24.42476563 -1.03515625 23.61328125 C-1.1008018 15.68892613 -0.72317286 7.89033243 0 0 Z " fill="#2A3334" transform="translate(204,317)"/>
<path d="M0 0 C1.66666667 0 3.33333333 0 5 0 C4.7215625 1.175625 4.7215625 1.175625 4.4375 2.375 C3.74037734 4.97089775 3.74037734 4.97089775 5 7 C1.95613276 7.08226668 -0.07175348 6.97608217 -3 6 C-4.33451263 5.88764839 -5.67354389 5.82424351 -7.01245117 5.79467773 C-7.81305466 5.77473251 -8.61365814 5.75478729 -9.43852234 5.73423767 C-10.29798965 5.71752518 -11.15745697 5.70081268 -12.04296875 5.68359375 C-12.9265657 5.66281265 -13.81016266 5.64203156 -14.72053528 5.62062073 C-17.54277785 5.55524246 -20.36511335 5.49629472 -23.1875 5.4375 C-25.10092106 5.39430363 -27.01433273 5.35068898 -28.92773438 5.30664062 C-33.61839437 5.19957305 -38.30914783 5.09827248 -43 5 C-43 4.34 -43 3.68 -43 3 C-29.14 2.67 -15.28 2.34 -1 2 C-0.67 1.34 -0.34 0.68 0 0 Z " fill="#9F8519" transform="translate(161,312)"/>
<path d="M0 0 C0.33 0 0.66 0 1 0 C1.33 5.94 1.66 11.88 2 18 C2.66 17.67 3.32 17.34 4 17 C4 19.31 4 21.62 4 24 C26.11 24 48.22 24 71 24 C71 24.33 71 24.66 71 25 C62.03809786 25.06942208 53.07628787 25.12277136 44.1141758 25.15543652 C39.95297391 25.17111189 35.79195559 25.19238392 31.63085938 25.22631836 C27.61732548 25.25884564 23.60396846 25.27683891 19.59031296 25.28463173 C18.05683989 25.29018723 16.52337682 25.30103544 14.98997879 25.31719017 C12.84678254 25.33887714 10.70432296 25.34197072 8.56103516 25.34057617 C6.72903061 25.35056892 6.72903061 25.35056892 4.86001587 25.36076355 C3.91621063 25.24171158 2.9724054 25.12265961 2 25 C-0.20192224 21.69711664 -0.23959968 20.72537273 -0.1953125 16.89453125 C-0.18886719 15.91162109 -0.18242187 14.92871094 -0.17578125 13.91601562 C-0.15902344 12.89185547 -0.14226562 11.86769531 -0.125 10.8125 C-0.11597656 9.77673828 -0.10695313 8.74097656 -0.09765625 7.67382812 C-0.0740786 5.11565315 -0.0411703 2.55794252 0 0 Z " fill="#CD9E1C" transform="translate(301,211)"/>
<path d="M0 0 C2.80724276 3.40634944 4.66180161 7.14240333 6.5 11.125 C6.80679687 11.78862549 7.11359375 12.45225098 7.4296875 13.13598633 C13.85188129 27.30289298 13.85188129 27.30289298 12 33 C11.5875 32.00355469 11.175 31.00710938 10.75 29.98046875 C9.03342813 25.97815653 7.0588184 22.14762976 5 18.3125 C4.65710938 17.66216797 4.31421875 17.01183594 3.9609375 16.34179688 C2.52473435 13.65302725 1.12193986 11.15050712 -0.80078125 8.77734375 C-1.19652344 8.19082031 -1.59226562 7.60429687 -2 7 C-1.1875 3.25 -1.1875 3.25 0 0 Z " fill="#D39D12" transform="translate(369,342)"/>
<path d="M0 0 C2.30394797 2.30394797 2.62666464 3.72469541 3.5625 6.8125 C6.97275262 16.50681362 12.91209162 24.68350671 21 31 C20.67 32.32 20.34 33.64 20 35 C11.78074308 31.6527913 6.95136613 22.55723221 3.5 14.8125 C1.50455131 9.80182913 0.21532666 5.38316651 0 0 Z " fill="#1B1D51" transform="translate(219,398)"/>
<path d="M0 0 C0.99 0.33 1.98 0.66 3 1 C3.95043457 12.35429868 4.11033706 23.61076383 4 35 C3.67 35 3.34 35 3 35 C2.67 31.7 2.34 28.4 2 25 C1.34 25.66 0.68 26.32 0 27 C-0.74440282 17.87247617 -1.25610227 9.12123495 0 0 Z " fill="#AF1A59" transform="translate(435,278)"/>
<path d="M0 0 C0.33 0 0.66 0 1 0 C1.33 1.98 1.66 3.96 2 6 C2.33 6 2.66 6 3 6 C3 8.97 3 11.94 3 15 C3.33 11.7 3.66 8.4 4 5 C4.99 5 5.98 5 7 5 C6.68905914 7.54186606 6.37629464 10.08348598 6.0625 12.625 C5.97548828 13.33785156 5.88847656 14.05070312 5.79882812 14.78515625 C5.41872298 17.85415336 5.01927753 20.89340662 4.46875 23.9375 C3.8356518 28.07374155 3.64066115 32.19853965 3.4375 36.375 C3.39431641 37.20644531 3.35113281 38.03789062 3.30664062 38.89453125 C3.20138195 40.92953228 3.10026928 42.96474703 3 45 C2.67 45 2.34 45 2 45 C1.70967913 40.68109097 1.42514353 36.36184723 1.14550781 32.04223633 C1.05001497 30.5789207 0.95305833 29.11569972 0.85449219 27.65258789 C0.23372633 18.42027941 -0.14451149 9.25977415 0 0 Z " fill="#1E2D3D" transform="translate(209,268)"/>
<path d="M0 0 C0.61875 0.639375 1.2375 1.27875 1.875 1.9375 C12.26742471 12.2421014 21.98049707 19.46898194 36 24 C35.505 25.485 35.505 25.485 35 27 C21.67460247 25.38837375 10.60162001 14.56993455 2.15234375 4.78515625 C0 2 0 2 0 0 Z " fill="#211A50" transform="translate(231,441)"/>
<path d="M0 0 C0.33 0.66 0.66 1.32 1 2 C-15.31822127 13.26580757 -15.31822127 13.26580757 -23 16 C-23.66 15.67 -24.32 15.34 -25 15 C-24.67 14.01 -24.34 13.02 -24 12 C-24.99 11.67 -25.98 11.34 -27 11 C-26.3915625 10.87625 -25.783125 10.7525 -25.15625 10.625 C-16.05792219 8.48421699 -8.20752949 4.33547041 0 0 Z " fill="#181D52" transform="translate(323,441)"/>
<path d="M0 0 C0.33 0 0.66 0 1 0 C1.33 8.25 1.66 16.5 2 25 C1.67 25 1.34 25 1 25 C0.896875 25.7425 0.79375 26.485 0.6875 27.25 C-0.04773816 30.19095263 -1.13577795 31.66097609 -3 34 C-3.32996536 9.54590069 -3.32996536 9.54590069 0 0 Z " fill="#B91B5C" transform="translate(218,370)"/>
<path d="M0 0 C-8.34156176 6.5783048 -19.20691285 11.56369426 -30 11 C-30 10.67 -30 10.34 -30 10 C-28.35 10 -26.7 10 -25 10 C-25 9.34 -25 8.68 -25 8 C-27.31 8 -29.62 8 -32 8 C-32 7.67 -32 7.34 -32 7 C-31.34257812 6.92523438 -30.68515625 6.85046875 -30.0078125 6.7734375 C-22.29533739 5.70748566 -15.26500349 3.57615663 -7.96923828 0.94482422 C-2.19961269 -1.09980634 -2.19961269 -1.09980634 0 0 Z " fill="#1B1C50" transform="translate(326,460)"/>
<path d="M0 0 C0.33 0 0.66 0 1 0 C1.77538632 4.18874176 2.17454013 8.23620401 2.31640625 12.4921875 C2.35830078 13.69101562 2.40019531 14.88984375 2.44335938 16.125 C2.48267578 17.3625 2.52199219 18.6 2.5625 19.875 C2.60568359 21.13570313 2.64886719 22.39640625 2.69335938 23.6953125 C2.79909102 26.79677423 2.90118571 29.89831145 3 33 C2.67 32.34 2.34 31.68 2 31 C1.01 32.32 0.02 33.64 -1 35 C-1.20638953 11.41761516 -1.20638953 11.41761516 0 0 Z " fill="#C89B1B" transform="translate(207,257)"/>
<path d="M0 0 C1.30195313 0.00322266 2.60390625 0.00644531 3.9453125 0.00976562 C5.32552149 0.01812159 6.70572982 0.02658654 8.0859375 0.03515625 C9.47395676 0.04017124 10.86197772 0.04473415 12.25 0.04882812 C15.65368882 0.06064649 19.05729189 0.07712191 22.4609375 0.09765625 C22.4609375 1.08765625 22.4609375 2.07765625 22.4609375 3.09765625 C18.52827854 3.14713323 14.59574036 3.18341203 10.6628418 3.20751953 C8.66774132 3.2225112 6.67272804 3.24792356 4.67773438 3.2734375 C3.42412109 3.27988281 2.17050781 3.28632813 0.87890625 3.29296875 C-0.27843018 3.30344238 -1.4357666 3.31391602 -2.62817383 3.32470703 C-5.5390625 3.09765625 -5.5390625 3.09765625 -8.5390625 1.09765625 C-5.66887809 -0.33743596 -3.20362527 -0.01392881 0 0 Z " fill="#EDAB06" transform="translate(349.5390625,208.90234375)"/>
<path d="M0 0 C0.33 0 0.66 0 1 0 C3.52129679 11.41999135 3.13598524 23.36570726 3 35 C2.67 35 2.34 35 2 35 C1.67 31.37 1.34 27.74 1 24 C0.01 26.475 0.01 26.475 -1 29 C-1.33 29 -1.66 29 -2 29 C-1.85891477 25.85393539 -1.71123864 22.70821132 -1.5625 19.5625 C-1.52318359 18.68400391 -1.48386719 17.80550781 -1.44335938 16.90039062 C-1.17137332 11.23052738 -0.68222355 5.63551047 0 0 Z " fill="#C39717" transform="translate(195,273)"/>
<path d="M0 0 C2.19835844 1.08369782 4.36813479 2.19945383 6.5234375 3.3671875 C16.43793988 8.6096504 26.77961376 12.1023691 38 13 C36.9375 14.5625 36.9375 14.5625 35 16 C22.35484905 15.48387139 9.3856926 9.28457783 0 1 C0 0.67 0 0.34 0 0 Z " fill="#3B1750" transform="translate(249,467)"/>
<path d="M0 0 C0.66 0 1.32 0 2 0 C2.33 6.6 2.66 13.2 3 20 C2.34 19.67 1.68 19.34 1 19 C1 20.98 1 22.96 1 25 C0.34 25 -0.32 25 -1 25 C-1.33 25.99 -1.66 26.98 -2 28 C-4.13586678 24.79619983 -4.23132175 23.98060033 -4.125 20.3125 C-4.10695312 19.50425781 -4.08890625 18.69601562 -4.0703125 17.86328125 C-4.04710937 17.24839844 -4.02390625 16.63351562 -4 16 C-3.34 16.99 -2.68 17.98 -2 19 C-1.34 12.73 -0.68 6.46 0 0 Z " fill="#383F32" transform="translate(191,318)"/>
<path d="M0 0 C3.5669486 5.3504229 3.30266278 11.74496926 3 18 C2.01319806 21.17186338 0.85522098 23.21716853 -1 26 C-1.16713569 28.62531524 -1.16713569 28.62531524 -1 31 C-1.99 31.33 -2.98 31.66 -4 32 C-4.09765625 25.84765625 -4.09765625 25.84765625 -4 24 C-3.67 23.67 -3.34 23.34 -3 23 C-0.94280882 15.47839476 -0.46165261 7.75090427 0 0 Z " fill="#B81B5A" transform="translate(409,290)"/>
<path d="M0 0 C0.33 0.66 0.66 1.32 1 2 C1.99 1.67 2.98 1.34 4 1 C6.21254987 0.98398919 8.42581776 1.03420244 10.63671875 1.12109375 C11.93544922 1.16943359 13.23417969 1.21777344 14.57226562 1.26757812 C15.94401533 1.32409952 17.31576007 1.38074169 18.6875 1.4375 C20.07094416 1.49074051 21.45440766 1.54348078 22.83789062 1.59570312 C26.22548325 1.72554117 29.61279314 1.86051375 33 2 C33 2.66 33 3.32 33 4 C28.7643915 4.16752496 24.52859426 4.32809332 20.29248047 4.48217773 C18.85100177 4.5355959 17.40959259 4.59092518 15.96826172 4.64819336 C13.89826447 4.73010997 11.82811573 4.80518359 9.7578125 4.87890625 C7.88826904 4.94960327 7.88826904 4.94960327 5.98095703 5.02172852 C3 5 3 5 1 4 C0.67 4.66 0.34 5.32 0 6 C0 5.34 0 4.68 0 4 C-0.66 4 -1.32 4 -2 4 C-1.34 2.68 -0.68 1.36 0 0 Z " fill="#891955" transform="translate(470,313)"/>
<path d="M0 0 C0.66 0 1.32 0 2 0 C2.67707648 12.34584137 3.1574163 24.63407511 3 37 C2.67 37 2.34 37 2 37 C1.92652344 35.93458984 1.92652344 35.93458984 1.8515625 34.84765625 C1.77679688 33.92855469 1.70203125 33.00945312 1.625 32.0625 C1.55539062 31.14597656 1.48578125 30.22945313 1.4140625 29.28515625 C1.20910156 28.15400391 1.20910156 28.15400391 1 27 C0.34 26.67 -0.32 26.34 -1 26 C-0.67 17.42 -0.34 8.84 0 0 Z " fill="#33194D" transform="translate(419,317)"/>
<path d="M0 0 C0.33 0 0.66 0 1 0 C0.85980449 4.31270236 0.71181808 8.62510461 0.5625 12.9375 C0.50352539 14.75604492 0.50352539 14.75604492 0.44335938 16.61132812 C0.2138853 23.12486148 -0.17004815 29.53474481 -1 36 C-1.33 36 -1.66 36 -2 36 C-2.19244514 31.49807684 -2.37113658 26.99589691 -2.53710938 22.49291992 C-2.59550403 20.96119563 -2.65765305 19.42960967 -2.72363281 17.89819336 C-2.81782927 15.69670803 -2.89850637 13.49507811 -2.9765625 11.29296875 C-3.00875885 10.60849167 -3.0409552 9.92401459 -3.0741272 9.21879578 C-3.19040732 5.52700357 -3.11526175 4.17289262 -1 1 C-0.67 0.67 -0.34 0.34 0 0 Z " fill="#201B4D" transform="translate(421,278)"/>
<path d="M0 0 C0.66 0.33 1.32 0.66 2 1 C-0.9826906 2.52448631 -3.818202 3.93940067 -7 5 C-7.63164062 5.35707031 -8.26328125 5.71414063 -8.9140625 6.08203125 C-11.38446251 7.16919231 -12.72600566 7.07323075 -15.375 6.6875 C-16.15488281 6.57921875 -16.93476563 6.4709375 -17.73828125 6.359375 C-18.48464844 6.24078125 -19.23101562 6.1221875 -20 6 C-21.175625 5.814375 -22.35125 5.62875 -23.5625 5.4375 C-24.366875 5.293125 -25.17125 5.14875 -26 5 C-25.67 6.32 -25.34 7.64 -25 9 C-27.31 8.67 -29.62 8.34 -32 8 C-30.28481449 5.57657778 -28.90360018 4.16342158 -25.92382812 3.62451172 C-23.36164365 3.48788266 -20.81584842 3.43937015 -18.25 3.4375 C-11.38009223 3.4018254 -6.37561416 2.58026537 0 0 Z " fill="#B51B5A" transform="translate(288,431)"/>
<path d="M0 0 C3.29714793 0.32971479 4.6226839 0.6226839 7 3 C7 4.32 7 5.64 7 7 C4 9 4 9 1.375 8.6875 C-1 8 -1 8 -2 7 C-2.1875 4.5625 -2.1875 4.5625 -2 2 C-1.34 1.34 -0.68 0.68 0 0 Z " fill="#E8A011" transform="translate(328,450)"/>
<path d="M0 0 C0.66 0 1.32 0 2 0 C2.33 9.24 2.66 18.48 3 28 C-1.5 22.375 -1.5 22.375 -1.171875 17.48046875 C-1.11386719 16.45888672 -1.05585938 15.43730469 -0.99609375 14.38476562 C-0.91488281 13.32966797 -0.83367187 12.27457031 -0.75 11.1875 C-0.68425781 10.11306641 -0.61851562 9.03863281 -0.55078125 7.93164062 C-0.38615884 5.28592339 -0.20197069 2.64308492 0 0 Z " fill="#341B51" transform="translate(432,318)"/>
<path d="M0 0 C2.475 0.495 2.475 0.495 5 1 C5 1.66 5 2.32 5 3 C12.26 3 19.52 3 27 3 C27.33 3.66 27.66 4.32 28 5 C23.87573464 5.22512171 19.75066151 5.42725588 15.625 5.625 C14.449375 5.68945312 13.27375 5.75390625 12.0625 5.8203125 C10.38027344 5.89765625 10.38027344 5.89765625 8.6640625 5.9765625 C7.62717285 6.02893066 6.5902832 6.08129883 5.52197266 6.13525391 C3 6 3 6 1 4 C0.375 1.875 0.375 1.875 0 0 Z " fill="#A88C1D" transform="translate(246,312)"/>
<path d="M0 0 C2.5 0.25 2.5 0.25 4.5 2.25 C3.94444444 6.80555556 3.94444444 6.80555556 2.5 8.25 C0.16055264 7.96269945 -2.1739143 7.63063221 -4.5 7.25 C-4.625 4.875 -4.625 4.875 -4.5 2.25 C-2.5 0.25 -2.5 0.25 0 0 Z " fill="#E9A510" transform="translate(332.5,466.75)"/>
<path d="M0 0 C0.144375 0.928125 0.28875 1.85625 0.4375 2.8125 C0.92100111 6.00725111 0.92100111 6.00725111 2 9 C1.72428861 11.00875442 1.39764263 13.01178687 1 15 C0.67 15 0.34 15 0 15 C-0.66 12.36 -1.32 9.72 -2 7 C-2.66 9.64 -3.32 12.28 -4 15 C-4.66 15 -5.32 15 -6 15 C-6.54372951 11.94152152 -7 9.11227195 -7 6 C-6.34 6 -5.68 6 -5 6 C-5 4.35 -5 2.7 -5 1 C-3 0 -3 0 0 0 Z " fill="#273436" transform="translate(185,298)"/>
<path d="M0 0 C2.5625 0.1875 2.5625 0.1875 4.5625 2.1875 C4.00694444 6.74305556 4.00694444 6.74305556 2.5625 8.1875 C0.125 8.375 0.125 8.375 -2.4375 8.1875 C-3.0975 7.5275 -3.7575 6.8675 -4.4375 6.1875 C-3.71780303 0.28598485 -3.71780303 0.28598485 0 0 Z " fill="#E8A40F" transform="translate(327.4375,432.8125)"/>
<path d="M0 0 C1.67344446 3.10467986 2.72670631 6.19191419 3.75 9.5625 C6.14193003 16.87266817 9.17902382 24.73175746 15 30 C14.67 30.99 14.34 31.98 14 33 C6.28491755 25.96316656 1.71561733 15.19566868 0 5 C-0.03934089 3.33379771 -0.05057194 1.66589923 0 0 Z " fill="#441850" transform="translate(217,401)"/>
<path d="M0 0 C0.33 0 0.66 0 1 0 C1.144375 1.134375 1.28875 2.26875 1.4375 3.4375 C1.61171478 6.80777201 1.61171478 6.80777201 3 8 C4.01329994 14.30497742 4.10273214 20.63060749 4 27 C3.2884375 26.0409375 3.2884375 26.0409375 2.5625 25.0625 C1.16261274 23.11706694 1.16261274 23.11706694 0 22 C-0.08700342 20.36527118 -0.10701063 18.72685945 -0.09765625 17.08984375 C-0.09443359 16.10048828 -0.09121094 15.11113281 -0.08789062 14.09179688 C-0.07951172 13.05087891 -0.07113281 12.00996094 -0.0625 10.9375 C-0.05798828 9.89271484 -0.05347656 8.84792969 -0.04882812 7.77148438 C-0.03699913 5.1809334 -0.02051689 2.59049441 0 0 Z " fill="#0C2749" transform="translate(191,330)"/>
<path d="M0 0 C3.25694723 3.02430814 5.72350913 6.17874747 8 10 C8 10.99 8 11.98 8 13 C7.34 12.67 6.68 12.34 6 12 C6.99 13.485 6.99 13.485 8 15 C7.67 15.99 7.34 16.98 7 18 C5.84800669 16.08702939 4.70362312 14.16947471 3.5625 12.25 C2.92441406 11.18265625 2.28632813 10.1153125 1.62890625 9.015625 C0.30308917 6.56111472 -0.66024639 4.74273823 -1 2 C-0.67 1.34 -0.34 0.68 0 0 Z " fill="#AE1A59" transform="translate(223,424)"/>
<path d="M0 0 C3 0.125 3 0.125 4 1.125 C4.1875 3.5625 4.1875 3.5625 4 6.125 C3.34 6.785 2.68 7.445 2 8.125 C-2.55555556 7.56944444 -2.55555556 7.56944444 -4 6.125 C-4.125 3.625 -4.125 3.625 -4 1.125 C-3 0.125 -3 0.125 0 0 Z " fill="#E9A80C" transform="translate(324,415.875)"/>
<path d="M0 0 C0.33 0 0.66 0 1 0 C2.01971283 4.25154463 2.19868804 8.32170719 2.25 12.6875 C2.270625 13.36361328 2.29125 14.03972656 2.3125 14.73632812 C2.328125 16.69921875 2.328125 16.69921875 2 20 C1.01 20.66 0.02 21.32 -1 22 C-1.02895225 18.70835171 -1.0467823 15.41673601 -1.0625 12.125 C-1.07506836 10.71927734 -1.07506836 10.71927734 -1.08789062 9.28515625 C-1.09111328 8.38925781 -1.09433594 7.49335938 -1.09765625 6.5703125 C-1.10289307 5.74289551 -1.10812988 4.91547852 -1.11352539 4.06298828 C-1 2 -1 2 0 0 Z " fill="#F1A903" transform="translate(214,287)"/>
<path d="M0 0 C1.81455688 0.07069702 1.81455688 0.07069702 3.66577148 0.14282227 C5.62353516 0.21533203 5.62353516 0.21533203 7.62084961 0.28930664 C9.00952598 0.34583683 10.39819781 0.40247892 11.78686523 0.45922852 C13.17942544 0.51243399 14.5720035 0.56517448 15.96459961 0.61743164 C19.38472504 0.74760943 22.80459448 0.88259032 26.22436523 1.02172852 C26.22436523 1.35172852 26.22436523 1.68172852 26.22436523 2.02172852 C16.32436523 2.51672852 16.32436523 2.51672852 6.22436523 3.02172852 C5.89436523 3.68172852 5.56436523 4.34172852 5.22436523 5.02172852 C2.91436523 4.69172852 0.60436523 4.36172852 -1.77563477 4.02172852 C-1.77563477 3.36172852 -1.77563477 2.70172852 -1.77563477 2.02172852 C-2.43563477 1.69172852 -3.09563477 1.36172852 -3.77563477 1.02172852 C-2.77563477 0.02172852 -2.77563477 0.02172852 0 0 Z " fill="#9F1A58" transform="translate(276.775634765625,481.978271484375)"/>
<path d="M0 0 C0.33 0 0.66 0 1 0 C1.33 2.64 1.66 5.28 2 8 C2.66 8 3.32 8 4 8 C3.03644647 22.78132118 3.03644647 22.78132118 2 29 C1.67 29 1.34 29 1 29 C0.67 19.43 0.34 9.86 0 0 Z " fill="#201A4D" transform="translate(438,284)"/>
<path d="M0 0 C0 0.66 0 1.32 0 2 C-4.77092956 3.23402862 -9.42469446 3.11265112 -14.3125 3.0625 C-15.14845703 3.05798828 -15.98441406 3.05347656 -16.84570312 3.04882812 C-18.89716649 3.03710548 -20.94859273 3.01917203 -23 3 C-23 2.34 -23 1.68 -23 1 C-20.47932687 0.83054298 -17.95850616 0.66436516 -15.4375 0.5 C-14.73302734 0.45230469 -14.02855469 0.40460938 -13.30273438 0.35546875 C-8.85739865 0.0686729 -4.45455341 -0.04682842 0 0 Z " fill="#052153" transform="translate(301,468)"/>
<path d="M0 0 C8.58 0 17.16 0 26 0 C26 0.33 26 0.66 26 1 C20.52140877 1.87510383 15.10142201 2.29024034 9.5625 2.5625 C8.73556641 2.60568359 7.90863281 2.64886719 7.05664062 2.69335938 C5.03790451 2.79838033 3.01897049 2.89958559 1 3 C0.67 2.01 0.34 1.02 0 0 Z " fill="#691C50" transform="translate(352,315)"/>
<path d="M0 0 C1.33333333 0 2.66666667 0 4 0 C4 1.98 4 3.96 4 6 C4.66 6.33 5.32 6.66 6 7 C5.34 9.31 4.68 11.62 4 14 C3.34 12.68 2.68 11.36 2 10 C1.67 11.65 1.34 13.3 1 15 C0.67 15 0.34 15 0 15 C-0.84888195 9.62374766 -1.0024305 5.34629602 0 0 Z " fill="#D11356" transform="translate(408,308)"/>
<path d="M0 0 C3.61861111 5.42791666 3.11082539 11.68295272 3 18 C2.34 17.34 1.68 16.68 1 16 C0.34 16.99 -0.32 17.98 -1 19 C-1.09507063 12.56688704 -1.15316726 6.34241995 0 0 Z " fill="#BB931D" transform="translate(188,287)"/>
<path d="M0 0 C0.33 0.66 0.66 1.32 1 2 C-1.12114959 3.50571746 -3.24653615 5.00468679 -5.375 6.5 C-5.97828125 6.92925781 -6.5815625 7.35851562 -7.203125 7.80078125 C-11.7734375 11 -11.7734375 11 -14 11 C-14 10.34 -14 9.68 -14 9 C-14.66 8.67 -15.32 8.34 -16 8 C-10.72 5.36 -5.44 2.72 0 0 Z " fill="#2D1A51" transform="translate(323,441)"/>
<path d="M0 0 C2.35234768 2.35234768 2.83636542 4.10834498 3.875 7.25 C5.44029538 11.73992622 7.2442445 15.16162627 10 19 C10 19.66 10 20.32 10 21 C9.01 21.33 8.02 21.66 7 22 C0.29612756 7.40318907 0.29612756 7.40318907 0 0 Z " fill="#30194F" transform="translate(219,398)"/>
<path d="M0 0 C0.66 0 1.32 0 2 0 C2.90413673 3.83724172 3.10576898 7.37502274 3.0625 11.3125 C3.05347656 12.38113281 3.04445313 13.44976562 3.03515625 14.55078125 C3.02355469 15.35902344 3.01195312 16.16726563 3 17 C2.01 17 1.02 17 0 17 C0 11.39 0 5.78 0 0 Z " fill="#CC1558" transform="translate(422,318)"/>
<path d="M0 0 C0.33 3.63 0.66 7.26 1 11 C-0.65 11.66 -2.3 12.32 -4 13 C-4 9.04 -4 5.08 -4 1 C-2 0 -2 0 0 0 Z " fill="#9F801A" transform="translate(226,300)"/>
<path d="M0 0 C0.25 6.625 0.25 6.625 -2 10 C-2.33 7.69 -2.66 5.38 -3 3 C-3.66 3 -4.32 3 -5 3 C-5 4.98 -5 6.96 -5 9 C-5.99 9.495 -5.99 9.495 -7 10 C-7.33 7.36 -7.66 4.72 -8 2 C-2.25 0 -2.25 0 0 0 Z " fill="#172A3C" transform="translate(234,303)"/>
<path d="M0 0 C0.66 0.33 1.32 0.66 2 1 C2.59355614 3.64860427 2.74209269 6.29197322 3 9 C0 9 0 9 -2 8 C-2.12375 9.299375 -2.2475 10.59875 -2.375 11.9375 C-2.5859375 14.15234375 -2.5859375 14.15234375 -3 16 C-3.66 16.33 -4.32 16.66 -5 17 C-4.67 12.05 -4.34 7.1 -4 2 C-3.01 3.485 -3.01 3.485 -2 5 C-1.34 3.35 -0.68 1.7 0 0 Z " fill="#291A4E" transform="translate(400,317)"/>
<path d="M0 0 C0.66 0.66 1.32 1.32 2 2 C2.66 1.67 3.32 1.34 4 1 C4 4.96 4 8.92 4 13 C3.01 13 2.02 13 1 13 C-0.32229189 10.35541621 -0.09677194 8.32238699 -0.0625 5.375 C-0.05347656 4.37210937 -0.04445313 3.36921875 -0.03515625 2.3359375 C-0.02355469 1.56507813 -0.01195312 0.79421875 0 0 Z " fill="#CC1558" transform="translate(414,317)"/>
<path d="M0 0 C0.33 0 0.66 0 1 0 C1.33 1.98 1.66 3.96 2 6 C2.33 6 2.66 6 3 6 C2.67 14.58 2.34 23.16 2 32 C1.67 32 1.34 32 1 32 C0.36850058 21.32089373 -0.17291697 10.7016389 0 0 Z " fill="#283538" transform="translate(209,268)"/>
<path d="M0 0 C0.33 0 0.66 0 1 0 C1.05441656 1.89551022 1.09298035 3.7914792 1.125 5.6875 C1.14820313 6.74324219 1.17140625 7.79898437 1.1953125 8.88671875 C0.99858729 12.02251859 0.33057654 14.17645373 -1 17 C-1.33 17 -1.66 17 -2 17 C-2.05383848 14.54137599 -2.09359038 12.0839245 -2.125 9.625 C-2.14175781 8.92632812 -2.15851563 8.22765625 -2.17578125 7.5078125 C-2.19344267 5.67102514 -2.10303261 3.83398037 -2 2 C-1.34 1.34 -0.68 0.68 0 0 Z " fill="#EFAA04" transform="translate(196,296)"/>
<path d="M0 0 C2 1 2 1 2.88671875 3.4765625 C4.38917417 9.38377749 5.49095553 14.03617787 4 20 C3.67 20 3.34 20 3 20 C2.34 16.37 1.68 12.74 1 9 C0.67 9 0.34 9 0 9 C0 6.03 0 3.06 0 0 Z " fill="#A78519" transform="translate(217,318)"/>
<path d="M0 0 C0.66 0.33 1.32 0.66 2 1 C0.54782324 2.50596108 -0.91192861 4.00462104 -2.375 5.5 C-3.18710937 6.3353125 -3.99921875 7.170625 -4.8359375 8.03125 C-7 10 -7 10 -9 10 C-9.2475 10.598125 -9.495 11.19625 -9.75 11.8125 C-11.16370012 14.28647521 -12.65055383 15.43370255 -15 17 C-11.97204597 10.16769346 -6.003649 4.31512272 0 0 Z " fill="#CB9C16" transform="translate(328,167)"/>
<path d="M0 0 C1.65 0 3.3 0 5 0 C4.01 3.63 3.02 7.26 2 11 C0 7 0 7 0 5 C-0.99 4.67 -1.98 4.34 -3 4 C-1.8125 2 -1.8125 2 0 0 Z " fill="#DDA60F" transform="translate(167,313)"/>
<path d="M0 0 C-1.86639981 0.87279862 -3.74360611 1.72251027 -5.625 2.5625 C-7.19121094 3.27599609 -7.19121094 3.27599609 -8.7890625 4.00390625 C-12.34440754 5.10684175 -14.42863232 4.89552313 -18 4 C-14.89724263 1.93149509 -12.5900783 1.21441918 -9 0.3125 C-7.948125 0.04050781 -6.89625 -0.23148437 -5.8125 -0.51171875 C-3 -1 -3 -1 0 0 Z " fill="#411850" transform="translate(330,476)"/>
<path d="M0 0 C0.33 0 0.66 0 1 0 C1 3.3 1 6.6 1 10 C1.66 10 2.32 10 3 10 C3 12.64 3 15.28 3 18 C2.01 18 1.02 18 0 18 C0 12.06 0 6.12 0 0 Z " fill="#3F4537" transform="translate(200,333)"/>
<path d="M0 0 C0.33 0 0.66 0 1 0 C1.21432579 6.64409958 0.51233701 12.53205867 -1 19 C-1.33 19 -1.66 19 -2 19 C-3.10228696 14.59085217 -3.07654536 10.51617599 -3 6 C-2.34 6 -1.68 6 -1 6 C-0.67 4.02 -0.34 2.04 0 0 Z " fill="#2F1B4F" transform="translate(408,294)"/>
<path d="M0 0 C2.28814723 2.28814723 2.75451161 3.80751622 3.6875 6.875 C3.95949219 7.73867188 4.23148437 8.60234375 4.51171875 9.4921875 C5.01692938 12.08694932 4.85561171 13.530785 4 16 C2 11.33333333 0 6.66666667 -2 2 C-1.34 2 -0.68 2 0 2 C0 1.34 0 0.68 0 0 Z " fill="#C7901F" transform="translate(377,359)"/>
<path d="M0 0 C0.33 0 0.66 0 1 0 C1 5.28 1 10.56 1 16 C-2 12 -2 12 -2.109375 9.74609375 C-1.99078125 8.98425781 -1.8721875 8.22242188 -1.75 7.4375 C-1.64171875 6.67308594 -1.5334375 5.90867187 -1.421875 5.12109375 C-1 3 -1 3 0 0 Z " fill="#B01E5C" transform="translate(218,370)"/>
<path d="M0 0 C0.33 0 0.66 0 1 0 C1 5.28 1 10.56 1 16 C0.34 16.33 -0.32 16.66 -1 17 C-2.3271261 13.0186217 -2.06915913 9.14954773 -2 5 C-1.67 5 -1.34 5 -1 5 C-0.67 3.35 -0.34 1.7 0 0 Z " fill="#561B52" transform="translate(437,347)"/>
<path d="M0 0 C0.33 0 0.66 0 1 0 C1.33 2.31 1.66 4.62 2 7 C2.66 6.34 3.32 5.68 4 5 C4 7.97 4 10.94 4 14 C2 14 2 14 0.35546875 12.85546875 C-1.5786837 10.20785373 -1.10132171 8.5102132 -0.6875 5.3125 C-0.56761719 4.31863281 -0.44773437 3.32476562 -0.32421875 2.30078125 C-0.21722656 1.54152344 -0.11023438 0.78226562 0 0 Z " fill="#252155" transform="translate(427,338)"/>
<path d="M0 0 C0.66 0 1.32 0 2 0 C2 1.32 2 2.64 2 4 C2.66 4 3.32 4 4 4 C4 5.32 4 6.64 4 8 C2.68 8 1.36 8 0 8 C-0.33 9.32 -0.66 10.64 -1 12 C-1.14285714 3.42857143 -1.14285714 3.42857143 0 0 Z " fill="#39423B" transform="translate(175,318)"/>
<path d="M0 0 C0.33 0 0.66 0 1 0 C1.33 5.28 1.66 10.56 2 16 C1.01 16.33 0.02 16.66 -1 17 C-0.67 11.39 -0.34 5.78 0 0 Z " fill="#98205B" transform="translate(416,272)"/>
<path d="M0 0 C0.33 0 0.66 0 1 0 C1.33 2.97 1.66 5.94 2 9 C1.34 9 0.68 9 0 9 C-0.66 10.65 -1.32 12.3 -2 14 C-3.32 13.67 -4.64 13.34 -6 13 C-5.34 11.68 -4.68 10.36 -4 9 C-3.67 9.66 -3.34 10.32 -3 11 C-2.01 7.37 -1.02 3.74 0 0 Z " fill="#AE8D1E" transform="translate(173,300)"/>
<path d="M0 0 C2 2 2 2 2.1953125 4.3828125 C2.17210937 5.28773438 2.14890625 6.19265625 2.125 7.125 C2.10695313 8.03507812 2.08890625 8.94515625 2.0703125 9.8828125 C2.03550781 10.93082031 2.03550781 10.93082031 2 12 C1.01 11.67 0.02 11.34 -1 11 C-1.02688151 9.35425434 -1.04634123 7.70838587 -1.0625 6.0625 C-1.07410156 5.14597656 -1.08570313 4.22945313 -1.09765625 3.28515625 C-1 1 -1 1 0 0 Z " fill="#551E52" transform="translate(436,267)"/>
<path d="M0 0 C0.639375 0.66 1.27875 1.32 1.9375 2 C5.7829235 5.85653744 9.90924419 9.40833422 14 13 C13.34 13.66 12.68 14.32 12 15 C10.36575817 13.44716875 8.74293752 11.8823119 7.125 10.3125 C6.22007812 9.44238281 5.31515625 8.57226562 4.3828125 7.67578125 C2.10736018 5.12056021 1.01295648 3.23098186 0 0 Z " fill="#41154E" transform="translate(231,441)"/>
<path d="M0 0 C2.22287284 4.44574567 2.49616752 7.16732832 2 12 C0.99124788 14.81009519 0.66604583 15.66697708 -2 17 C-1.34 11.39 -0.68 5.78 0 0 Z " fill="#2E1A4F" transform="translate(406,317)"/>
<path d="M0 0 C2.60018816 3.90028225 2.15085514 7.47434569 2 12 C0.5 11 0.5 11 -1 9 C-1.33190332 6.24520245 -1.18037589 3.79582634 -1 1 C-0.67 0.67 -0.34 0.34 0 0 Z M-2 9 C-1.67 9 -1.34 9 -1 9 C-1 11.31 -1 13.62 -1 16 C-1.33 16 -1.66 16 -2 16 C-2 13.69 -2 11.38 -2 9 Z " fill="#BA1A5B" transform="translate(430,321)"/>
<path d="M0 0 C1.26328125 0.03609375 2.5265625 0.0721875 3.828125 0.109375 C5.27445312 0.17898438 5.27445312 0.17898438 6.75 0.25 C6.75 0.58 6.75 0.91 6.75 1.25 C2.79 1.25 -1.17 1.25 -5.25 1.25 C-4.92 2.57 -4.59 3.89 -4.25 5.25 C-6.56 4.92 -8.87 4.59 -11.25 4.25 C-7.85110743 -0.11019552 -5.38491164 -0.19944117 0 0 Z " fill="#8B1E5A" transform="translate(267.25,434.75)"/>
<path d="M0 0 C2.27474277 3.41211416 2.56629644 5.6568529 3.125 9.6875 C3.29257813 10.86699219 3.46015625 12.04648437 3.6328125 13.26171875 C3.75398437 14.16535156 3.87515625 15.06898438 4 16 C3.34 16 2.68 16 2 16 C-1.62870159 5.62642369 -1.62870159 5.62642369 0 0 Z " fill="#40442D" transform="translate(232,317)"/>
<path d="M0 0 C0.33 0 0.66 0 1 0 C1.2475 0.94875 1.495 1.8975 1.75 2.875 C2.6857077 6.08693191 2.6857077 6.08693191 5.125 7.375 C5.74375 7.58125 6.3625 7.7875 7 8 C5.01432292 7.96744792 3.02864583 7.93489583 1.04296875 7.90234375 C-1.20305461 7.91736783 -1.20305461 7.91736783 -4 9 C-3.67 7.35 -3.34 5.7 -3 4 C-2.01 4.33 -1.02 4.66 0 5 C0 3.35 0 1.7 0 0 Z " fill="#B7214F" transform="translate(325,452)"/>
<path d="M0 0 C2 2 2 2 2 5 C2.66 5 3.32 5 4 5 C4 4.34 4 3.68 4 3 C4.66 3 5.32 3 6 3 C5.47731534 5.76276177 4.89130413 8.3260876 4 11 C3.96125079 12.66621616 3.9549714 14.33394172 4 16 C2.06757715 12.65479742 1.4536147 9.55232518 0.875 5.75 C0.70742187 4.67234375 0.53984375 3.5946875 0.3671875 2.484375 C0.24601563 1.66453125 0.12484375 0.8446875 0 0 Z " fill="#A51D5A" transform="translate(216,415)"/>
<path d="M0 0 C0.33 0 0.66 0 1 0 C1.22331199 1.58129029 1.42804644 3.16521089 1.625 4.75 C1.74101562 5.63171875 1.85703125 6.5134375 1.9765625 7.421875 C2.00207817 10.22859878 1.44843844 11.63384866 0 14 C-0.66 14 -1.32 14 -2 14 C-2.625 11.1875 -2.625 11.1875 -3 8 C-2.34 7.01 -1.68 6.02 -1 5 C-0.61500109 3.34450469 -0.27206865 1.6777567 0 0 Z " fill="#3F3E22" transform="translate(185,318)"/>
<path d="M0 0 C0.66 0 1.32 0 2 0 C3.41377341 2.63904371 4.37240135 5.07120629 5 8 C3.02 8.33 1.04 8.66 -1 9 C-0.67 6.03 -0.34 3.06 0 0 Z " fill="#221B4F" transform="translate(451,318)"/>
<path d="M0 0 C6.93 0.495 6.93 0.495 14 1 C12.515 2.485 12.515 2.485 11 4 C6.88665824 3.7756359 3.54645721 3.12787433 0 1 C0 0.67 0 0.34 0 0 Z " fill="#2B1950" transform="translate(273,479)"/>
<path d="M0 0 C-4.455 2.97 -4.455 2.97 -9 6 C-9.33 5.34 -9.66 4.68 -10 4 C-10.99 3.67 -11.98 3.34 -13 3 C-11.21189234 2.30329584 -9.41937948 1.61788811 -7.625 0.9375 C-6.62726563 0.55464844 -5.62953125 0.17179687 -4.6015625 -0.22265625 C-2 -1 -2 -1 0 0 Z " fill="#361950" transform="translate(326,460)"/>
<path d="M0 0 C2.56529454 1.28264727 2.66499863 2.22772349 3.625 4.875 C3.88539063 5.57367188 4.14578125 6.27234375 4.4140625 6.9921875 C5 9 5 9 5 12 C4.01 11.67 3.02 11.34 2 11 C0.60955102 7.12137916 0 4.13537997 0 0 Z " fill="#BC1D5B" transform="translate(220,396)"/>
<path d="M0 0 C0.33 0 0.66 0 1 0 C1 5.28 1 10.56 1 16 C0.01 16.33 -0.98 16.66 -2 17 C-2.09765625 10.84765625 -2.09765625 10.84765625 -2 9 C-1.67 8.67 -1.34 8.34 -1 8 C-0.76924918 6.65252916 -0.58846937 5.29622435 -0.4375 3.9375 C-0.293125 2.638125 -0.14875 1.33875 0 0 Z " fill="#9A1B5A" transform="translate(407,305)"/>
<path d="M0 0 C0.66 0 1.32 0 2 0 C2.33 4.29 2.66 8.58 3 13 C2.01 12.67 1.02 12.34 0 12 C0 8.04 0 4.08 0 0 Z " fill="#AD8A1B" transform="translate(234,298)"/>
<path d="M0 0 C0.33 0 0.66 0 1 0 C1.66 4.29 2.32 8.58 3 13 C1.68 12.67 0.36 12.34 -1 12 C-1.08159574 7.83861737 -0.98248524 4.0527516 0 0 Z " fill="#B01B5A" transform="translate(448,300)"/>
<path d="M0 0 C0.33 0.66 0.66 1.32 1 2 C1.66 2.33 2.32 2.66 3 3 C2 4 2 4 -0.50390625 4.09765625 C-2.01791016 4.08025391 -2.01791016 4.08025391 -3.5625 4.0625 C-4.57441406 4.05347656 -5.58632813 4.04445312 -6.62890625 4.03515625 C-7.41136719 4.02355469 -8.19382812 4.01195312 -9 4 C-5.97060499 1.58554629 -3.86695903 0.53707764 0 0 Z " fill="#022558" transform="translate(336,204)"/>
<path d="M0 0 C0.66 0.33 1.32 0.66 2 1 C2.39171753 2.65391846 2.72057545 4.32345271 3 6 C3.33 6.99 3.66 7.98 4 9 C3.01 9.66 2.02 10.32 1 11 C0.34 10.34 -0.32 9.68 -1 9 C-0.9765625 6.8359375 -0.9765625 6.8359375 -0.625 4.375 C-0.51414063 3.55773437 -0.40328125 2.74046875 -0.2890625 1.8984375 C-0.19367188 1.27195312 -0.09828125 0.64546875 0 0 Z " fill="#2E3937" transform="translate(227,317)"/>
<path d="M0 0 C0.33 0 0.66 0 1 0 C1.33 3.3 1.66 6.6 2 10 C1.01 10.66 0.02 11.32 -1 12 C-1.02698189 10.37509046 -1.04638757 8.75005367 -1.0625 7.125 C-1.07410156 6.22007812 -1.08570313 5.31515625 -1.09765625 4.3828125 C-1 2 -1 2 0 0 Z " fill="#ECAD0D" transform="translate(214,287)"/>
<path d="M0 0 C0.33 0 0.66 0 1 0 C1.66 5.61 2.32 11.22 3 17 C2.34 16.67 1.68 16.34 1 16 C0.60235737 14.01178687 0.27571139 12.00875442 0 10 C-0.20625 9.34 -0.4125 8.68 -0.625 8 C-1.15211371 5.18872687 -0.56791744 2.77648527 0 0 Z " fill="#4C164D" transform="translate(446,317)"/>
<path d="M0 0 C2.10827055 3.16240582 2.33817465 4.50657469 2.625 8.1875 C2.69976562 9.08855469 2.77453125 9.98960937 2.8515625 10.91796875 C2.90054687 11.60503906 2.94953125 12.29210937 3 13 C2.34 13 1.68 13 1 13 C-0.00496852 9.98509443 -0.10335303 7.95818308 -0.0625 4.8125 C-0.05347656 3.91144531 -0.04445313 3.01039063 -0.03515625 2.08203125 C-0.02355469 1.39496094 -0.01195312 0.70789063 0 0 Z " fill="#AD1E5E" transform="translate(458,300)"/>
<path d="M0 0 C0.33 0 0.66 0 1 0 C1.33 4.29 1.66 8.58 2 13 C1.34 12.34 0.68 11.68 0 11 C-0.66 11.66 -1.32 12.32 -2 13 C-1.48041715 8.62065881 -0.94324258 4.31196609 0 0 Z " fill="#D0A420" transform="translate(183,300)"/>
<path d="M0 0 C0.33 0 0.66 0 1 0 C1.33 1.65 1.66 3.3 2 5 C2.33 5 2.66 5 3 5 C3 7.64 3 10.28 3 13 C2.34 13 1.68 13 1 13 C-0.32229189 10.35541621 -0.09677194 8.32238699 -0.0625 5.375 C-0.05347656 4.37210937 -0.04445313 3.36921875 -0.03515625 2.3359375 C-0.02355469 1.56507813 -0.01195312 0.79421875 0 0 Z " fill="#391E53" transform="translate(408,330)"/>
<path d="M0 0 C0.66 0 1.32 0 2 0 C1.34 4.95 0.68 9.9 0 15 C-0.33 15 -0.66 15 -1 15 C-1.22304441 13.25181409 -1.4278645 11.50129677 -1.625 9.75 C-1.74101562 8.77546875 -1.85703125 7.8009375 -1.9765625 6.796875 C-2.00112537 3.86570607 -1.5312717 2.45471036 0 0 Z " fill="#3F164C" transform="translate(447,298)"/>
<path d="M0 0 C0.66 0.33 1.32 0.66 2 1 C-1.96 4.465 -1.96 4.465 -6 8 C-6.99 7.34 -7.98 6.68 -9 6 C-6.03 4.02 -3.06 2.04 0 0 Z " fill="#3B1950" transform="translate(319,423)"/>
<path d="M0 0 C2 2 2 2 2.125 5.625 C2.08375 6.73875 2.0425 7.8525 2 9 C1.01 9.495 1.01 9.495 0 10 C-1.36952673 7.26094655 -1.12621361 5.02912668 -1 2 C-0.67 1.34 -0.34 0.68 0 0 Z " fill="#BF2550" transform="translate(373,233)"/>
<path d="M0 0 C-2 2 -2 2 -5.5 2.25 C-9 2 -9 2 -11 0 C-7.18243176 -1.37432457 -3.92744671 -0.67975039 0 0 Z " fill="#A11B5A" transform="translate(389,221)"/>
<path d="M0 0 C-0.33 0.99 -0.66 1.98 -1 3 C-4.3 3.66 -7.6 4.32 -11 5 C-8.86408028 0.72816055 -4.40904993 0 0 0 Z " fill="#211B51" transform="translate(312,430)"/>
<path d="M0 0 C0.66 0 1.32 0 2 0 C1.814375 0.78375 1.62875 1.5675 1.4375 2.375 C0.74037734 4.97089775 0.74037734 4.97089775 2 7 C0.35 7 -1.3 7 -3 7 C-2.67 5.35 -2.34 3.7 -2 2 C-1.34 2 -0.68 2 0 2 C0 1.34 0 0.68 0 0 Z " fill="#C39713" transform="translate(164,312)"/>
<path d="M0 0 C0.33 0 0.66 0 1 0 C1 3.96 1 7.92 1 12 C0.01 11.34 -0.98 10.68 -2 10 C-1.54177532 6.53058454 -1.10868317 3.32604951 0 0 Z " fill="#F0AC05" transform="translate(189,300)"/>
<path d="M0 0 C1.5 1 1.5 1 3 3 C3.27345479 5.71846235 3.13491285 8.25677199 3 11 C1.5 10 1.5 10 0 8 C-0.27345479 5.28153765 -0.13491285 2.74322801 0 0 Z " fill="#454228" transform="translate(219,332)"/>
<path d="M0 0 C0.33 0.99 0.66 1.98 1 3 C-0.98 4.98 -2.96 6.96 -5 9 C-5.66 8.67 -6.32 8.34 -7 8 C-4.69 5.36 -2.38 2.72 0 0 Z " fill="#251E52" transform="translate(368,452)"/>
<path d="M0 0 C1.5625 1.75 1.5625 1.75 3 4 C2.6875 6.25 2.6875 6.25 2 8 C1.34 8 0.68 8 0 8 C0 5.36 0 2.72 0 0 Z " fill="#C71759" transform="translate(216,382)"/>
<path d="M0 0 C1.32 0.33 2.64 0.66 4 1 C4 2.65 4 4.3 4 6 C3.01 5.67 2.02 5.34 1 5 C0.67 3.35 0.34 1.7 0 0 Z " fill="#E0A510" transform="translate(373,355)"/>
<path d="M0 0 C1.32 0.33 2.64 0.66 4 1 C3.67 2.98 3.34 4.96 3 7 C2.34 7 1.68 7 1 7 C0.67 4.69 0.34 2.38 0 0 Z " fill="#211C50" transform="translate(450,306)"/>
<path d="M0 0 C0 2.64 0 5.28 0 8 C-0.99 7.67 -1.98 7.34 -3 7 C-3 5.02 -3 3.04 -3 1 C-1 0 -1 0 0 0 Z " fill="#C69512" transform="translate(305,228)"/>
<path d="M0 0 C2.72869407 0.03287583 5.2966618 0.56397771 8 1 C6.515 2.485 6.515 2.485 5 4 C2.69 3.34 0.38 2.68 -2 2 C-1.34 1.34 -0.68 0.68 0 0 Z " fill="#471A53" transform="translate(269,477)"/>
<path d="M0 0 C2.32472205 2.85306797 3.7508258 5.54074837 5 9 C4.01 9.495 4.01 9.495 3 10 C0 3.375 0 3.375 0 0 Z " fill="#41174F" transform="translate(221,415)"/>
<path d="M0 0 C0.66 0.33 1.32 0.66 2 1 C0.38405168 3.04119788 -1.2856382 5.04072937 -3 7 C-3.66 7 -4.32 7 -5 7 C-3.70700306 4.11562221 -2.34058637 2.12780579 0 0 Z " fill="#CC9915" transform="translate(355,253)"/>
</svg>
